<svg xmlns="http://www.w3.org/2000/svg" viewBox="0 0 199.17 221.21"><defs><style>.cls-1,.cls-2,.cls-5{fill:#fff;}.cls-1,.cls-5{stroke:#fff;stroke-linecap:round;stroke-miterlimit:10;}.cls-1{stroke-width:3px;}.cls-3{fill:none;}.cls-4{fill:#9e005d;}.cls-5{stroke-width:0.5px;}</style></defs><g id="Layer_2" data-name="Layer 2"><g id="Layer_1-2" data-name="Layer 1"><path class="cls-1" d="M161.34,101.83a1.37,1.37,0,0,0-1-.39s0,0,0,0c-2.47-1.64-8.06-5.06-10.13-3.89-2.8,1.57-13.73,16.68-11.73,27.68,0,0-2.16,5.34-4.08,4.17,0,0,5,11.87,3.06,14.85s-2.78,7.06-7.38,8-9.84-4.22-5.22-13.63c0,0,1.14-14.58-19.62,3,0,0,0,11-9.36,6.27,0,0-3.4,7.31-10.4,3.31,0,0-2.72,9.92-10.36,3,0,0-11.64,13-15.64-2,0,0-3.56,2.08-4.28,0s-.44,3.8-1.08,4.88S39.45,162.31,34,152.27c0,0-4.7,7.52-8.59-3.76,0,0-6.83,2.44-9.86-1.92l-9.87-.31a70.94,70.94,0,0,1-4.14-18.7,1.36,1.36,0,0,1,.11-.66,89.17,89.17,0,0,1,8.05-14.49c.42,1.41,3.09,2.28,4.14,2.12a9.25,9.25,0,0,1,5.46.76,5.54,5.54,0,0,0,3.33.5c3.11-.5,4.75.25,5.6,1a3.7,3.7,0,0,0,2.71,1c3.48-.27,4.79.63,5.28,1.36a1.34,1.34,0,0,0,1.36.61c8.39-1.63,10.91,1.59,11.66,4a1.36,1.36,0,0,0,2,.78,3.44,3.44,0,0,1,4.65.84,1.38,1.38,0,0,0,1.55.32c3.65-1.48,7.24.91,8.66,2a1.31,1.31,0,0,0,1.38.18,12.74,12.74,0,0,1,9.43-.08,1.38,1.38,0,0,0,1.17-.1c3.18-1.72,5.31-.8,6.32-.06a1.37,1.37,0,0,0,1.53,0c4.2-2.74,7-1.8,8.37-1a1.35,1.35,0,0,0,1.61-.09c3.36-2.95,11.36-2.67,8.59,7.06-2.28,8,2,4.32,4.17,2.09a4.27,4.27,0,0,0,1.21-2.86c.14-4.69.51-18.13,0-19.83-.64-2.06,8.64-9.94,8.64-9.94C135.14,75.8,160.31,100.79,161.34,101.83Z"/><path d="M70.57,219.71c-4.68,0-9.18-3.59-10-4.25-1.32-.84-4.5-4.59-2.94-20.88.55-5.67-.63-10.22-3.5-13.54-3.31-3.83-8.44-5.38-12.14-5.56h-.17a6.55,6.55,0,0,1-1.28.15H40.3a.89.89,0,0,0,.23.42l.16.13.11.18.24.34.54.63c1.06,1.24,2.27,2.64,2.23,4.92a1.21,1.21,0,0,0,0,.18c1.75,6.54-.38,10.12-1.26,10.86a5,5,0,0,1-.44.3c-3.38,2.07-6.25,3.07-8.76,3.07h0c-3,0-8.16-1.6-8.94-12.31l0-.25a19.38,19.38,0,0,1,.25-8.06s.07-.56.09-.68a5.13,5.13,0,0,1-1.65-2.07,4.06,4.06,0,0,0-.56-.89l-.57-.11-.28-.44c0-.05-.09-.1-.13-.16A66,66,0,0,1,6.23,147.79l-.75-2.08,2.21.07.88,0a33.22,33.22,0,0,0,6.61-.67l1-.22.58.83a5.1,5.1,0,0,0,4.48,1.95,12.64,12.64,0,0,0,3.64-.59l1.43-.5.49,1.42c1.67,4.83,3.18,5.21,3.6,5.21.9,0,2-1.2,2.3-1.75l1.36-2.18,1.23,2.25c2.63,4.82,7.46,5.84,11,5.84a19.82,19.82,0,0,0,2.54-.17l.54-.07a8.52,8.52,0,0,1,1.66-.14c1.29,0,1.52,0,1.86-1.16a.51.51,0,0,1,0-.09c.07-.56.12-1.24.17-1.88.14-2,.25-3.54,1.84-3.54a1.74,1.74,0,0,1,1.63,1.33h0a5.38,5.38,0,0,0,2.12-.74l1.7-1,.5,1.89C62,155.89,63.71,158,66,158c3.09,0,6.84-3.44,8-4.76l1-1.12,1.11,1c1.5,1.37,2.88,2.09,4,2.09,2.63,0,3.91-4.3,3.92-4.34l.52-1.85,1.67,1a6.71,6.71,0,0,0,3.27,1c3.26,0,5-3.61,5-3.65l.65-1.38,1.37.68a8.18,8.18,0,0,0,3.48,1h.25a5.46,5.46,0,0,1,1-.58,2.73,2.73,0,0,0,1.67-1.55c.09-.21.15-.36.21-.52a11.15,11.15,0,0,0,.58-3.28V141l.53-.45c7.17-6.08,12.51-9,16.32-9a5.35,5.35,0,0,1,4.05,1.65,8.05,8.05,0,0,1,1.71,5.64l0,.29-.13.25c-1.87,3.82-2.15,7.29-.75,9.53a4.17,4.17,0,0,0,3.53,2,3.53,3.53,0,0,0,.79-.08c2.78-.58,3.83-2.59,5-4.92a27.6,27.6,0,0,1,1.4-2.46c.91-1.38-.92-8.06-3.2-13.43l-1.82-4.3L135,128a9.48,9.48,0,0,0,1.89-3c-1.74-11.56,9.22-26.94,12.55-28.81a3.69,3.69,0,0,1,1.8-.43c2.73,0,6.89,2.38,9.89,4.38l4.14,2.75h-5C154.45,113,156,121.87,156,122c4.37,31.43-14.89,45.87-21.06,49.63,2.42,3.47,1.45,8.38,1.09,9.82a3.54,3.54,0,0,1-.26.67c-3.51,6.18-7.2,9.28-11,9.28-4.14,0-6.71-3.65-7.18-4.38a2.3,2.3,0,0,1-.26-.5,17.45,17.45,0,0,1-.22-11.72,2.9,2.9,0,0,0-.16-2.36l-.06-.15a6.56,6.56,0,0,1-1.44-1.76c-.12-.19-.27-.43-.37-.56l-.36,0-.43-.18-.48-.22a8.41,8.41,0,0,0-3.6-.8,9.09,9.09,0,0,0-4.17,1c-7.65,4-7.78,5.84-8.21,11.95-.11,1.62-.24,3.46-.53,5.67-1.06,8-5.9,8.65-7.35,8.65a7.71,7.71,0,0,1-6.4-3.65,5.92,5.92,0,0,1-.36-5.87c1.18-2.35-.7-6-2.22-9l-.37-.73a2.85,2.85,0,0,1-.19-.56,4.28,4.28,0,0,1-.22-.89c0-.17,0-.35-.07-.55v-.22a4.44,4.44,0,0,1-1.44,1.2l0,.11-.29.58c-5.74,11.8.84,23.38,2.22,25.58a2.89,2.89,0,0,1,.43,1.73C79.9,217,74.73,219.71,70.57,219.71Z"/><path class="cls-2" d="M151.28,97.31c2.52,0,6.94,2.72,9.06,4.13a1.46,1.46,0,0,0-1.24.71c-6.33,10.78-4.62,20.08-4.62,20.08,4.28,30.73-14.78,44.7-20.44,48.13a1.4,1.4,0,0,0-.38,2.07c2.12,3,1.13,7.61.88,8.61a2.67,2.67,0,0,1-.14.36c-3.72,6.55-7.06,8.46-9.68,8.46-3.35,0-5.54-3.11-5.92-3.7a.61.61,0,0,1-.11-.21,15.83,15.83,0,0,1-.21-10.72,4.4,4.4,0,0,0-.24-3.51c-.06-.15-.14-.3-.21-.45-1.47-1-1.54-2.85-2.93-2.85l-.23,0-.51-.24a10,10,0,0,0-4.2-.92,10.58,10.58,0,0,0-4.86,1.2c-10.54,5.51-8.13,8.12-9.53,18.75-.72,5.41-3.31,7.35-5.87,7.35-3.61,0-7.17-3.84-5.42-7.35,1.55-3.1-.64-7.26-2.33-10.56-.09-.17-.17-.35-.26-.52a1.31,1.31,0,0,1-.09-.33,2.12,2.12,0,0,1-.18-.67c0-.14,0-.3-.06-.46-.08-1.46-.08-2.46-.08-2.46a1.64,1.64,0,0,0-.73-.2c-1.31,0-1.56,2.26-3.37,2.64,0,.12-.1.24-.14.37s-.06.27-.09.42l-.19.39c-6.09,12.52.89,24.78,2.3,27a1.32,1.32,0,0,1,.2.82c-.92,11.46-4.9,14.52-8.89,14.52-4.54,0-9.09-4-9.09-4s-4-2-2.31-19.51c1.57-16.42-11-20.44-17.06-20.74h-.37a5.86,5.86,0,0,1-1.16.15c-.66,0-1.1-.23-1.1-.89a2.89,2.89,0,0,0,.06,3.93c.1.15.2.29.31.43,1.2,1.48,2.58,2.63,2.45,4.82,0,.13.07.26.11.39,1.55,5.78-.23,8.86-.77,9.32l-.26.17c-3.3,2-5.91,2.85-8,2.85-5.33,0-7.06-5.55-7.45-10.92l0-.32a17.64,17.64,0,0,1,.24-7.62c0-.13,0-.25.05-.37.05-.36.09-.67.13-.92a1.09,1.09,0,0,0,0-.36,1.4,1.4,0,0,0-.08-.34c-1.8-.06-1.8-3.06-3.37-3.36l-.2-.25a64.53,64.53,0,0,1-15.06-23.4l.92,0a34.65,34.65,0,0,0,7-.71,6.58,6.58,0,0,0,5.71,2.6,13.84,13.84,0,0,0,4.15-.68c1.66,4.84,3.48,6.22,5,6.22,2,0,3.57-2.46,3.57-2.46,2.85,5.21,8,6.62,12.37,6.62a21.33,21.33,0,0,0,2.73-.18l.58-.08c1.84-.4,3.84.6,4.73-2.35a2.87,2.87,0,0,0,.05-.31c.22-1.62.22-4.13.53-4.13.07,0,.15.13.25.43a1.36,1.36,0,0,0,1.41.9,7.09,7.09,0,0,0,2.87-.94c1.47,5.48,3.94,7.22,6.5,7.22,4.45,0,9.15-5.26,9.15-5.26,2,1.81,3.63,2.48,5,2.48,3.88,0,5.36-5.44,5.36-5.44a8.13,8.13,0,0,0,4,1.2c4.29,0,6.39-4.51,6.39-4.51a9.4,9.4,0,0,0,4.14,1.17,5.68,5.68,0,0,0,.59,0L101,149c.51-.77,2.51-.77,3.39-3,.08-.19.15-.38.22-.57a12.71,12.71,0,0,0,.67-3.78C113.06,135,117.77,133,120.6,133c4.71,0,4.27,5.67,4.27,5.67-4.26,8.67-.15,13.75,4.12,13.75a5.06,5.06,0,0,0,1.09-.12c4.61-1,5.4-5,7.38-8s-3.05-14.85-3.05-14.85a1,1,0,0,0,.57.17c1.75,0,3.5-4.34,3.5-4.34-2-11,8.94-26.11,11.73-27.68a2.25,2.25,0,0,1,1.07-.24m0-3h0a5.06,5.06,0,0,0-2.54.63c-3.89,2.18-14.83,17.79-13.35,29.87a13,13,0,0,1-.7,1.25L128,122l3.64,8.58c2.1,4.94,3.62,10.66,3.25,12.14-.54.82-1,1.66-1.4,2.47-1.27,2.45-2,3.74-4,4.15a2,2,0,0,1-.48.06,2.67,2.67,0,0,1-2.26-1.35c-1.12-1.79-.81-4.73.83-8.08l.25-.51,0-.57c0-.43.25-4.22-2.11-6.78A6.77,6.77,0,0,0,120.6,130c-4.18,0-9.83,3.07-17.29,9.39l-1.07.91v1.39a10.18,10.18,0,0,1-.5,2.77c0,.12-.09.24-.14.36l0,.06,0,.06c-.12.32-.23.4-.93.74-.24.12-.52.26-.81.43a7.33,7.33,0,0,1-2.6-.84l-2.75-1.38-1.31,2.8s-1.37,2.77-3.66,2.77a5.24,5.24,0,0,1-2.53-.8l-3.36-1.92-1,3.73c-.31,1.08-1.39,3.23-2.47,3.23-.33,0-1.3-.17-3-1.7l-2.24-2-2,2.26c-1.25,1.39-4.58,4.26-6.91,4.26-1.87,0-3-2.72-3.6-5l-1-3.8-3.4,2a6.78,6.78,0,0,1-.66.32A3,3,0,0,0,55,148.84c-.46,0-2.78.16-3.19,3.25-.06.48-.11,1.06-.15,1.68s-.09,1.23-.15,1.73H51a10.94,10.94,0,0,0-1.93.16,3.18,3.18,0,0,1-.43.06,17.08,17.08,0,0,1-2.35.16c-4.63,0-7.9-1.7-9.73-5.06l-2.46-4.5-2.72,4.35a3.62,3.62,0,0,1-1,1c-.29-.23-1.19-1.15-2.22-4.15l-1-2.86-2.85,1a11.13,11.13,0,0,1-3.14.5c-2.34,0-3-1-3.25-1.31l-1.16-1.66-2,.45a32.76,32.76,0,0,1-6.28.63l-.83,0-4.42-.13,1.5,4.15a67.54,67.54,0,0,0,15.66,24.4l0,0,.7.94.47.09.11.21a7.82,7.82,0,0,0,1.37,2,20.47,20.47,0,0,0-.22,8.29v.18c.87,11.93,6.92,13.71,10.45,13.71,2.8,0,5.92-1.07,9.54-3.29a4.65,4.65,0,0,0,.49-.33l.07-.05.06-.05c1.66-1.39,3.5-5.84,1.75-12.39a7.76,7.76,0,0,0-1.94-4.92A15.76,15.76,0,0,1,53,182c2.58,3,3.64,7.16,3.14,12.41-1.53,15.95,1.37,20.79,3.54,22.23,1.13.94,5.77,4.54,10.85,4.54,4.79,0,10.73-3,11.89-17.28a4.38,4.38,0,0,0-.63-2.6l0,0v0c-1.28-2-7.3-12.62-2.44-23.48l.12.24.11.21c1.21,2.37,3,6,2.21,7.64a7.41,7.41,0,0,0,.42,7.33,9.25,9.25,0,0,0,7.68,4.36c1.76,0,7.62-.71,8.84-10,.3-2.26.43-4.12.54-5.77.41-5.88.49-7.11,7.4-10.72a7.59,7.59,0,0,1,3.48-.86,6.89,6.89,0,0,1,2.93.64l0,0,0,0,.42.19.64.3a8,8,0,0,0,1.38,1.72,1.42,1.42,0,0,1,0,1.11,18.71,18.71,0,0,0,.26,12.79,3.8,3.8,0,0,0,.41.77c.61.94,3.58,5,8.41,5,4.39,0,8.52-3.36,12.28-10l0-.07,0-.07a5.82,5.82,0,0,0,.37-1c.35-1.42,1.24-5.92-.54-9.68,7.35-4.88,24.77-19.86,20.55-50.27v-.07l0-.06c0-.07-1.31-8,3.82-17.25h9L162,98.94c-4.62-3.07-8.23-4.63-10.72-4.63Z"/><path d="M104.67,140.19a2.16,2.16,0,0,1-1.77-.87c-.8-1.06-.76-2.79.14-6,.74-2.58.68-4.61-.16-5.72a3,3,0,0,0-2.51-1.07,5.47,5.47,0,0,0-3.49,1.27,2.8,2.8,0,0,1-1.83.68,2.89,2.89,0,0,1-1.56-.45,4.38,4.38,0,0,0-2.3-.62A8.36,8.36,0,0,0,86.73,129a2.9,2.9,0,0,1-1.56.46,2.83,2.83,0,0,1-1.66-.53,3.3,3.3,0,0,0-2-.64,5.84,5.84,0,0,0-2.73.8,3,3,0,0,1-1.42.37,2.87,2.87,0,0,1-1-.19,12.42,12.42,0,0,0-4.27-.78,9.68,9.68,0,0,0-4,.83,2.81,2.81,0,0,1-1.16.25,2.86,2.86,0,0,1-1.79-.64,9.12,9.12,0,0,0-5.28-2.17,4.89,4.89,0,0,0-1.86.36,2.9,2.9,0,0,1-1.12.22,2.83,2.83,0,0,1-2.11-.92,2.46,2.46,0,0,0-1.68-.94,2,2,0,0,0-1,.34,2.86,2.86,0,0,1-4.28-1.58c-.69-2.28-2.73-3.43-6.08-3.43a21,21,0,0,0-3.86.41,2.18,2.18,0,0,1-.52.06A2.87,2.87,0,0,1,35,120c-.09-.14-.62-.76-2.85-.76-.33,0-.69,0-1.08,0h-.35a5.23,5.23,0,0,1-3.47-1.38,4.05,4.05,0,0,0-2.72-.79,11.13,11.13,0,0,0-1.65.14,6.83,6.83,0,0,1-1.11.09,7.19,7.19,0,0,1-3.11-.72,7.57,7.57,0,0,0-3.28-.73,9.73,9.73,0,0,0-1.3.1,8.51,8.51,0,0,1-1.31.12,3.27,3.27,0,0,1-3.49-2.29L9,113.18l.4-.59A122,122,0,0,1,27.73,91.76C22.5,79,24.43,66.86,32.61,61,36.92,57.94,41,40.31,43,25.23a2.19,2.19,0,0,1,.26-.86c.58-1.29,6.33-13.06,19-13.06A26.51,26.51,0,0,1,73.1,13.86a37.14,37.14,0,0,0,15.12,3.63c8,0,12.35-3.54,13.13-4.25a2.86,2.86,0,0,1,.7-.47C117,5.3,131,1.5,143.33,1.5c28.48,0,40.19,19.61,42.29,23.64,5.8,3.15,9.56,7.64,11.17,13.36,3.46,12.26-4.21,26.4-5.78,29.1,1.43,14.69-11.95,25-16.24,28,3.27,4,10,14.24,4,25.39-3.25,6-7.07,7.3-9.7,7.3a10.28,10.28,0,0,1-7.94-4.3c-1.11-1.53-1.5-3-1.11-4.18.54-1.6,1.25-7,1.91-14.38v-.12a6.59,6.59,0,0,0-1.69-2.35c-.46-.47-11-11-22.49-11-6.42,0-12,3.34-16.62,9.91a25.27,25.27,0,0,1-3.75,4.34c-3,2.77-5.89,6.28-6.1,7.2-.19,1.64-.1,6.57,0,10.92.07,3.46.12,6.73.06,8.76a5.75,5.75,0,0,1-1.63,3.86c-2.83,2.9-4.19,3.28-5.06,3.28Zm70-44.58h0Z"/><path class="cls-2" d="M143.33,3c28.1,0,39.44,19.91,41,22.86a1.33,1.33,0,0,0,.57.58c20.89,11.3,6.82,37,4.83,40.41a1.42,1.42,0,0,0-.17.84c1.34,14-11.42,23.79-15.7,26.67a1.41,1.41,0,0,0-.28,2.07c2.77,3.36,9.61,13.25,3.92,23.8-2.61,4.86-5.65,6.51-8.37,6.51-4.56,0-8.25-4.63-7.63-6.51.94-2.79,1.86-13.39,2-14.84a1.86,1.86,0,0,0,0-.47,7.77,7.77,0,0,0-2.07-3.06l0,0c-.66-.67-11.47-11.41-23.53-11.41-6,0-12.32,2.66-17.84,10.55a24.71,24.71,0,0,1-3.54,4.09c-2.7,2.46-6.4,6.63-6.58,8.11-.36,3.06.17,15.14,0,19.83a4.32,4.32,0,0,1-1.21,2.86c-1.17,1.2-3,2.83-4,2.83s-1.24-1.21-.19-4.92c1.82-6.39-1-8.7-4.11-8.7a7,7,0,0,0-4.47,1.64,1.31,1.31,0,0,1-.85.31,1.4,1.4,0,0,1-.76-.22,5.88,5.88,0,0,0-3.1-.85,9.71,9.71,0,0,0-5.27,1.82,1.36,1.36,0,0,1-.75.22,1.3,1.3,0,0,1-.78-.25,4.83,4.83,0,0,0-2.88-.92,7.23,7.23,0,0,0-3.44,1,1.54,1.54,0,0,1-.71.19,1.18,1.18,0,0,1-.46-.09,14.16,14.16,0,0,0-4.82-.88,11.33,11.33,0,0,0-4.62,1,1.25,1.25,0,0,1-.54.12,1.33,1.33,0,0,1-.84-.3,10.71,10.71,0,0,0-6.23-2.51,6.42,6.42,0,0,0-2.42.47,1.43,1.43,0,0,1-.56.11,1.3,1.3,0,0,1-1-.43,4,4,0,0,0-2.8-1.43,3.37,3.37,0,0,0-1.82.57,1.42,1.42,0,0,1-.76.22,1.34,1.34,0,0,1-1.29-1c-.61-2-2.38-4.49-7.52-4.49a21.56,21.56,0,0,0-4.14.44,1,1,0,0,1-.24,0,1.39,1.39,0,0,1-1.12-.64c-.43-.64-1.49-1.41-4.09-1.41-.36,0-.76,0-1.19,0h-.24a3.72,3.72,0,0,1-2.47-1,5.37,5.37,0,0,0-3.72-1.17,12.34,12.34,0,0,0-1.89.16,5.1,5.1,0,0,1-.87.07,5.61,5.61,0,0,1-2.45-.57,9.15,9.15,0,0,0-3.94-.88,10.23,10.23,0,0,0-1.52.12,7.35,7.35,0,0,1-1.09.1,1.88,1.88,0,0,1-2.05-1.22,118.79,118.79,0,0,1,18-20.55,1.4,1.4,0,0,0,.37-1.6c-5.46-13.55-2.44-24.16,4.39-29.05s10.64-34.14,11-36.81a1,1,0,0,1,.12-.38c.72-1.58,6.07-12.23,17.71-12.23a24.85,24.85,0,0,1,10.19,2.42A38.32,38.32,0,0,0,88.22,19c8.62,0,13.33-3.9,14.13-4.64a1.26,1.26,0,0,1,.32-.21C119,6,132.43,3,143.33,3m0-3V0h0c-12.61,0-26.73,3.85-42,11.44a4.37,4.37,0,0,0-1,.68C99.9,12.53,95.87,16,88.22,16a35.8,35.8,0,0,1-14.5-3.49A27.86,27.86,0,0,0,62.29,9.81c-13.54,0-19.68,12.34-20.43,14a4.14,4.14,0,0,0-.38,1.33c-1.95,14.85-6,32.05-9.74,34.7C23.2,65.9,21,78.21,25.91,91.38A121.17,121.17,0,0,0,8.18,111.75l-.8,1.17.41,1.37a4.8,4.8,0,0,0,4.93,3.36,11.09,11.09,0,0,0,1.54-.13,6.53,6.53,0,0,1,1.07-.09A6,6,0,0,1,18,118a8.69,8.69,0,0,0,3.75.86,7.83,7.83,0,0,0,1.37-.11,8.8,8.8,0,0,1,1.39-.12,2.57,2.57,0,0,1,1.72.41,6.76,6.76,0,0,0,4.47,1.76l.44,0c.37,0,.69,0,1,0a4.36,4.36,0,0,1,1.71.24,4.38,4.38,0,0,0,3.5,1.81,3.93,3.93,0,0,0,.84-.09,18.93,18.93,0,0,1,3.54-.38c3.93,0,4.45,1.72,4.65,2.37a4.36,4.36,0,0,0,6.51,2.41.75.75,0,0,1,.24-.11,1.75,1.75,0,0,1,.57.46,4.34,4.34,0,0,0,3.21,1.4,4.46,4.46,0,0,0,1.69-.33,3.3,3.3,0,0,1,1.29-.25,7.87,7.87,0,0,1,4.37,1.86,4.31,4.31,0,0,0,4.51.55,8.25,8.25,0,0,1,3.35-.68,11.32,11.32,0,0,1,3.75.68,4.2,4.2,0,0,0,1.53.29,4.48,4.48,0,0,0,2.13-.55,4.41,4.41,0,0,1,2-.62,1.87,1.87,0,0,1,1.1.34,4.37,4.37,0,0,0,4.92.14A7,7,0,0,1,91.19,129a2.85,2.85,0,0,1,1.52.4,4.37,4.37,0,0,0,2.34.67,4.32,4.32,0,0,0,2.81-1,4.06,4.06,0,0,1,2.51-.91,1.62,1.62,0,0,1,1.31.47c.41.55.61,2-.08,4.41-1,3.69-1,5.79.1,7.27a3.71,3.71,0,0,0,3,1.47c1.75,0,3.59-1.12,6.14-3.74a7.26,7.26,0,0,0,2-4.86c.07-2.06,0-5.35-.06-8.83-.07-4.13-.15-8.79,0-10.54a33.31,33.31,0,0,1,5.64-6.44,27.39,27.39,0,0,0,4-4.59c4.37-6.24,9.4-9.27,15.39-9.27,10.86,0,21,10.09,21.4,10.52h0l0,0a7.31,7.31,0,0,1,1.21,1.54c-.76,8.41-1.43,12.62-1.81,13.76-.55,1.64-.08,3.61,1.31,5.54a11.66,11.66,0,0,0,9.16,4.92c3,0,7.42-1.41,11-8.09,5.92-11,0-21.36-3.21-25.78,5.31-3.89,16.7-14,15.64-28,2.1-3.74,9.12-17.59,5.68-29.82-1.69-6-5.56-10.71-11.51-14.05-2.67-4.92-14.9-24-43.39-24Z"/><path class="cls-3" d="M109.87,136.83h0"/><path class="cls-3" d="M104.49,140.23l.08,0"/><path class="cls-3" d="M109.87,136.83h0"/><path class="cls-3" d="M161.55,102.27c-.1-.07-.53-.38-1.19-.83"/><path class="cls-3" d="M161.57,102.28h0l-.06,0"/><path class="cls-3" d="M161.37,101.86l0,0"/><path class="cls-4" d="M37.84,150.68s1.91,6.67,14.3,3.81V131.12a.5.5,0,0,0-.91-.28Z"/><path class="cls-2" d="M37.84,150.68a6.35,6.35,0,0,0,2.61,2.93,9.55,9.55,0,0,0,3.74,1.23,18.64,18.64,0,0,0,2,.15c.66,0,1.32,0,2-.1s1.32-.15,2-.27l1.95-.41-.22.28c-.06-4.05,0-8.1-.07-12.14v-11.2c0-.06,0-.06,0-.08a.15.15,0,0,0-.19-.1s-.06,0-.1.08l-.21.31-.43.62L50,133.23l-1.7,2.5-3.46,5Q41.4,145.68,37.84,150.68Zm0,0q3.22-5.07,6.57-10.16l3.34-5.09,1.7-2.54.85-1.27.42-.63.21-.32a.85.85,0,0,1,1.52.19,1.06,1.06,0,0,1,0,.29v11.2c0,4,0,8.09-.07,12.14v.24l-.22,0-2,.36c-.67.11-1.35.15-2,.23s-1.35,0-2,0a17.24,17.24,0,0,1-2-.21,9.82,9.82,0,0,1-3.79-1.43A6.22,6.22,0,0,1,37.84,150.68Z"/><path class="cls-4" d="M56.91,149.72l-2.86-14.3s0-7.63,6.68-6.68,4.77,7.44,4.77,7.44Z"/><path class="cls-2" d="M56.91,149.72l-3.17-14.24v-.06a9,9,0,0,1,1.65-5.16,5.18,5.18,0,0,1,2.27-1.64,5.06,5.06,0,0,1,1.38-.28,5.79,5.79,0,0,1,1.38,0,8.12,8.12,0,0,1,2.67.7,5.33,5.33,0,0,1,2.11,1.83,5.76,5.76,0,0,1,.86,2.65,8.45,8.45,0,0,1-.25,2.74v0l0,0c-1.47,2.3-3,4.55-4.48,6.79Zm0,0c1.45-2.35,2.84-4.68,4.21-7s2.71-4.53,4.1-6.75l0,.08a6.24,6.24,0,0,0-.58-4.82,4.44,4.44,0,0,0-1.84-1.56,8.22,8.22,0,0,0-2.42-.63,5.82,5.82,0,0,0-1.25,0,4.41,4.41,0,0,0-1.2.24,4.49,4.49,0,0,0-2,1.38,8.41,8.41,0,0,0-1.55,4.74v-.07Z"/><path class="cls-4" d="M25.49,136.23s8.76,2.22,13.88.61-8.88,16.39-8.88,15.39S24.49,149.23,25.49,136.23Z"/><path class="cls-2" d="M25.48,136.23a50.41,50.41,0,0,0,6.33.87,23.28,23.28,0,0,0,6.3-.25c.53-.11.94-.26,1.56-.4a1.3,1.3,0,0,1,.52,0,.82.82,0,0,1,.51.4,1.6,1.6,0,0,1,.06,1,12.4,12.4,0,0,1-1.33,3,62.29,62.29,0,0,1-3.5,5.4c-1.26,1.72-2.56,3.42-4,5.05a9.73,9.73,0,0,1-1.2,1.21l-.09,0c-.06,0-.05.07-.3,0a.32.32,0,0,1-.18-.16.62.62,0,0,1-.05-.18h0s0,0,0-.06a1.52,1.52,0,0,0-.22-.26l-.56-.55a11.46,11.46,0,0,1-2-2.57,15.85,15.85,0,0,1-1.9-6.16A30.51,30.51,0,0,1,25.48,136.23Zm0,0a32.92,32.92,0,0,0,.3,6.36,15.73,15.73,0,0,0,2,5.92,12.58,12.58,0,0,0,2,2.4l.58.56a1.81,1.81,0,0,1,.3.35.7.7,0,0,1,.13.3l0,.1a.4.4,0,0,0,0-.13.36.36,0,0,0-.14-.13c-.22-.05-.18,0-.21,0s0,0,0,0a8.46,8.46,0,0,0,1-1.09c1.36-1.61,2.64-3.32,3.87-5a63.05,63.05,0,0,0,3.52-5.29,11.76,11.76,0,0,0,1.28-2.81.91.91,0,0,0,0-.57c0-.05,0-.06-.09-.08a.87.87,0,0,0-.28,0c-.42.08-1,.26-1.54.35a23.62,23.62,0,0,1-6.45,0A43.42,43.42,0,0,1,25.48,136.23Z"/><path class="cls-4" d="M63.78,145.53a2.51,2.51,0,0,1,2.15-1.36c2.68-.07,8.32.23,7.56,4.06-1,5-2.48,8.84-7.74,8.92C61,157.22,61.48,149.9,63.78,145.53Z"/><path class="cls-2" d="M63.78,145.53a2.53,2.53,0,0,1,2-1.37,18.66,18.66,0,0,1,2.48,0,13.74,13.74,0,0,1,2.46.34,5.12,5.12,0,0,1,2.26,1.12,2.71,2.71,0,0,1,.83,2.42,21.82,21.82,0,0,1-.47,2.46,12,12,0,0,1-2.07,4.61,6.42,6.42,0,0,1-2,1.62,8.06,8.06,0,0,1-2.49.66,5.08,5.08,0,0,1-2.57-.32,3.52,3.52,0,0,1-1.69-1.94,6.58,6.58,0,0,1-.44-2.47,12.85,12.85,0,0,1,.21-2.48A16.31,16.31,0,0,1,63.78,145.53Zm0,0a16.2,16.2,0,0,0-1.47,4.69,11.15,11.15,0,0,0-.08,2.45,6.35,6.35,0,0,0,.54,2.33,3.09,3.09,0,0,0,1.56,1.62,4.87,4.87,0,0,0,2.29.16,7.58,7.58,0,0,0,2.25-.66,5.68,5.68,0,0,0,1.77-1.47,11.13,11.13,0,0,0,2-4.29c.36-1.54,1.2-3.29,0-4.46a4.87,4.87,0,0,0-2.06-1.15,12.23,12.23,0,0,0-2.41-.47,20.22,20.22,0,0,0-2.46-.07A2.51,2.51,0,0,0,63.78,145.53Z"/><path class="cls-4" d="M76.89,144.42a3.34,3.34,0,0,1,3-2.74,7.78,7.78,0,0,1,4.24.82c2.58,1.33-.75,8-2.44,11a1.36,1.36,0,0,1-2.21.22A10.75,10.75,0,0,1,76.89,144.42Z"/><path class="cls-2" d="M76.89,144.42a3.45,3.45,0,0,1,2.8-2.77,7.92,7.92,0,0,1,4.16.51,2.41,2.41,0,0,1,.94.62,2.3,2.3,0,0,1,.48,1,5.9,5.9,0,0,1-.06,2.18,19.18,19.18,0,0,1-1.34,4,38.11,38.11,0,0,1-2,3.74,1.64,1.64,0,0,1-2.25.45,3.43,3.43,0,0,1-.76-.83,9,9,0,0,1-.59-.88A11.36,11.36,0,0,1,76.89,144.42Zm0,0a10.23,10.23,0,0,0,1.73,7.88q.3.42.63.81a3.21,3.21,0,0,0,.68.66,1.08,1.08,0,0,0,1.44-.36c.63-1.18,1.26-2.45,1.82-3.7a22.64,22.64,0,0,0,1.39-3.84,5.49,5.49,0,0,0,.18-2,1.73,1.73,0,0,0-.32-.86,1.94,1.94,0,0,0-.74-.55,7.51,7.51,0,0,0-4-.75A3.3,3.3,0,0,0,76.89,144.42Z"/><path class="cls-4" d="M12.49,118.23s7-3,5,2c0,0-4,6-4,7s-6-2-5-3A61.25,61.25,0,0,0,12.49,118.23Z"/><path class="cls-2" d="M12.48,118.23a12.1,12.1,0,0,1,1.84-.72,7.15,7.15,0,0,1,2-.36,2.43,2.43,0,0,1,1,.22,1.37,1.37,0,0,1,.71.9,3.78,3.78,0,0,1-.28,2.07v0l0,0c-1,1.53-1.94,3.07-2.83,4.64-.22.39-.44.79-.63,1.19-.1.19-.19.39-.28.59l-.11.28a.29.29,0,0,1,0,.09s0,0,0,.09a.68.68,0,0,1-.08.24.67.67,0,0,1-.63.27,2.55,2.55,0,0,1-.41-.05,5.05,5.05,0,0,1-.69-.22,11.53,11.53,0,0,1-1.29-.58,8.68,8.68,0,0,1-2.31-1.65,1.27,1.27,0,0,1-.35-.8.67.67,0,0,1,.23-.49l.21-.24c.29-.33.56-.69.83-1.05C10.42,121.24,11.45,119.73,12.48,118.23Zm0,0c-.85,1.61-1.73,3.21-2.73,4.74-.26.38-.51.77-.8,1.14a2.83,2.83,0,0,1-.23.28c-.07.09-.05.06-.05.11a.81.81,0,0,0,.24.38,8.23,8.23,0,0,0,2.15,1.46,11.75,11.75,0,0,0,1.22.52c.2.07.41.13.6.18l.27,0c.09,0,.11-.06,0,.07s0,0,0,.08,0-.06,0-.08l0-.24.12-.36c.1-.22.19-.45.3-.65.22-.41.44-.81.68-1.21.93-1.58,1.92-3.11,3-4.61l0,.05a3.36,3.36,0,0,0,.35-1.74c-.07-.55-.66-.82-1.28-.85a7.28,7.28,0,0,0-1.91.18A19,19,0,0,0,12.48,118.23Z"/><path class="cls-4" d="M25.37,122.39s4.12-5.16-3.88-2.16c0,0-5.32,6.4-5.16,7.2s3.94,3,5.05,1.4S25.37,122.39,25.37,122.39Z"/><path class="cls-2" d="M25.37,122.39a5.81,5.81,0,0,0,1-1.76,1.06,1.06,0,0,0-.07-.94,1.08,1.08,0,0,0-.88-.33,6.29,6.29,0,0,0-1.95.37c-.63.2-1.26.44-1.87.69l.08-.06c-1.13,1.48-2.23,3-3.32,4.47a27.06,27.06,0,0,0-1.51,2.27c0,.08-.1.2-.11.24s0,0,0,0a.06.06,0,0,1,0,0,2.53,2.53,0,0,0,.4.41,6.37,6.37,0,0,0,1.1.73,3.66,3.66,0,0,0,2.47.54,1.06,1.06,0,0,0,.49-.31c.14-.15.26-.37.4-.55l.77-1.16C23.38,125.53,24.38,124,25.37,122.39Zm0,0c-1,1.58-1.93,3.18-2.85,4.81l-.69,1.21a5.51,5.51,0,0,1-.37.61,1.38,1.38,0,0,1-.64.48,4.13,4.13,0,0,1-2.9-.38,7.35,7.35,0,0,1-1.26-.75,2.3,2.3,0,0,1-.57-.59,1.31,1.31,0,0,1-.12-.27,1.84,1.84,0,0,1,0-.33,2.25,2.25,0,0,1,.15-.4,17.55,17.55,0,0,1,1.58-2.38c1.13-1.49,2.36-2.9,3.6-4.3l0,0,0,0c.65-.21,1.29-.41,1.95-.56a6.93,6.93,0,0,1,2-.24,1.17,1.17,0,0,1,.92.41,1.11,1.11,0,0,1,.05,1A5.85,5.85,0,0,1,25.37,122.39Z"/><path class="cls-4" d="M30.37,122.39s6.12-3.16,4.12,2.84c0,0-5,9-6,8s-8.12-2.17-4.06-5.08A25.18,25.18,0,0,0,30.37,122.39Z"/><path class="cls-2" d="M30.37,122.39a8.13,8.13,0,0,1,1.79-.77,3.28,3.28,0,0,1,2-.06,1.43,1.43,0,0,1,.76.75,2.9,2.9,0,0,1,.19,1c0,.33-.06.67-.12,1l-.24,1v0a59.27,59.27,0,0,1-3.53,5.87c-.33.47-.67.94-1.05,1.39a6.38,6.38,0,0,1-.63.65,1.74,1.74,0,0,1-.42.3,1.2,1.2,0,0,1-.32.11.71.71,0,0,1-.46-.12,5.37,5.37,0,0,0-1.43-.74c-.53-.22-1.06-.43-1.59-.67a7.71,7.71,0,0,1-1.54-.88,2.49,2.49,0,0,1-.67-.7,1.44,1.44,0,0,1-.18-1.06,2.86,2.86,0,0,1,1.18-1.46c.48-.34.93-.65,1.38-1A28.14,28.14,0,0,0,30.37,122.39Zm0,0a22.75,22.75,0,0,1-4.61,5c-.82.75-2,1.36-2.23,2.23-.11.39.2.78.62,1.09a7.15,7.15,0,0,0,1.42.77c.51.23,1,.42,1.57.63a6.47,6.47,0,0,1,1.6.8s0,0-.07,0a.23.23,0,0,0,.09,0l.27-.19a6.06,6.06,0,0,0,.56-.57,16.38,16.38,0,0,0,1-1.31c1.31-1.84,2.47-3.79,3.64-5.73l0,.05.28-.9c.07-.31.11-.61.15-.92a1.44,1.44,0,0,0-.64-1.47,3,3,0,0,0-1.82-.06A9.09,9.09,0,0,0,30.37,122.39Z"/><path class="cls-4" d="M35,131.6s4.77-4.77,4.77-5.72,6.82-7.31,7.7,4c0,0-1,4.61-2.94,4.61S32.11,134.46,35,131.6Z"/><path class="cls-2" d="M35,131.6c1.2-1.25,2.38-2.52,3.48-3.85a5.59,5.59,0,0,0,1.27-2.23,6.06,6.06,0,0,1,1.92-1.85,4,4,0,0,1,2.64-.67,3.26,3.26,0,0,1,2.21,1.67,12.14,12.14,0,0,1,1.31,5.16v.1a15.48,15.48,0,0,1-.7,2.12,6.46,6.46,0,0,1-1.17,2,2.3,2.3,0,0,1-1,.66,6.43,6.43,0,0,1-1.15,0q-1.1,0-2.19-.12a35.08,35.08,0,0,1-4.33-.54,7.12,7.12,0,0,1-2.08-.66,1.17,1.17,0,0,1-.67-.83A1.47,1.47,0,0,1,35,131.6Zm0,0a1.37,1.37,0,0,0-.48.94,1.12,1.12,0,0,0,.66.79,7.37,7.37,0,0,0,2.07.61,28.61,28.61,0,0,0,4.34.3c.72,0,1.45,0,2.17,0a5.28,5.28,0,0,0,1-.06,1.84,1.84,0,0,0,.74-.55,10.17,10.17,0,0,0,1.6-3.84v.1A13.2,13.2,0,0,0,45.92,125a2.78,2.78,0,0,0-1.73-1.45,3.45,3.45,0,0,0-2.33.48A5.48,5.48,0,0,0,40,125.66a.54.54,0,0,0-.1.24,1.2,1.2,0,0,1-.12.35,4.48,4.48,0,0,1-.36.56c-.27.35-.55.69-.84,1C37.42,129.14,36.21,130.38,35,131.6Z"/><path class="cls-4" d="M5.53,128.43s4.73-1.24,2.84,4.28l-1.2,4.52S5.57,137.63,5.53,128.43Z"/><path class="cls-2" d="M5.53,128.43a3.9,3.9,0,0,1,1.44-.2,2.17,2.17,0,0,1,1.43.53,2.31,2.31,0,0,1,.65,1.43,6.6,6.6,0,0,1,0,.77l-.1.75c-.48,1.92-.92,3.75-1.44,5.62l-.07.24-.2,0a.67.67,0,0,1-.57-.16,1.18,1.18,0,0,1-.27-.28,2.56,2.56,0,0,1-.32-.58,6.5,6.5,0,0,1-.35-1.17,15.28,15.28,0,0,1-.28-2.33c0-.77-.08-1.55-.06-2.32S5.48,129.15,5.53,128.43Zm0,0,.21,2.31c.08.76.15,1.52.26,2.28s.24,1.5.41,2.23a6.23,6.23,0,0,0,.35,1,2.18,2.18,0,0,0,.23.43l.13.13s.12,0,0,0l-.26.26c.48-1.86,1-3.77,1.55-5.56A2.77,2.77,0,0,0,8.12,129,3,3,0,0,0,5.53,128.43Z"/><path class="cls-4" d="M12.49,131.23s3.44-2.28,2.22,11.86c0,0-2.7,1.06-4-3.9S11.49,129.23,12.49,131.23Z"/><path class="cls-2" d="M12.48,131.23a1.07,1.07,0,0,1,.82-.13,1.09,1.09,0,0,1,.38.21,1.11,1.11,0,0,1,.31.3,4.57,4.57,0,0,1,.44.73c.09.27.2.53.28.8a17.08,17.08,0,0,1,.5,3.32,31,31,0,0,1,0,3.34c0,1.11-.12,2.21-.17,3.32l0,.24-.21.07a2.53,2.53,0,0,1-2.23-.34,4.42,4.42,0,0,1-1.39-1.63,11.42,11.42,0,0,1-1.09-3.93,13.57,13.57,0,0,1,.23-4A7.23,7.23,0,0,1,11,131.6a2,2,0,0,1,.65-.79.49.49,0,0,1,.52,0A1,1,0,0,1,12.48,131.23Zm0,0a1,1,0,0,0-.32-.36.4.4,0,0,0-.42,0,2,2,0,0,0-.52.78,8.19,8.19,0,0,0-.48,1.89,13.28,13.28,0,0,0,0,3.88,11.41,11.41,0,0,0,1.1,3.67A3.73,3.73,0,0,0,13,142.47a1.93,1.93,0,0,0,1.56.28l-.23.31c.08-1.1.21-2.19.24-3.29s.08-2.19.09-3.29a18.72,18.72,0,0,0-.28-3.26c-.06-.26-.14-.52-.2-.78a4.36,4.36,0,0,0-.35-.72,1.3,1.3,0,0,0-.57-.52A1,1,0,0,0,12.48,131.23Z"/><path class="cls-4" d="M17.84,132.61s4,.62,5.34,3.62,0,9.7,0,9.7-5,3.14-5.34-4.28S17.84,132.61,17.84,132.61Z"/><path class="cls-2" d="M17.84,132.61a8.56,8.56,0,0,1,3.86,1.49,5.68,5.68,0,0,1,1.45,1.56,6.19,6.19,0,0,1,.72,2,17.25,17.25,0,0,1,.16,4.18,36.2,36.2,0,0,1-.48,4.14l0,.16-.14.08a4.78,4.78,0,0,1-2.3.71,2.88,2.88,0,0,1-2.25-1,4.73,4.73,0,0,1-.66-1,7.63,7.63,0,0,1-.35-1.12,11.84,11.84,0,0,1-.28-2.28c0-1.49-.05-3,0-4.47A31.8,31.8,0,0,1,17.84,132.61Zm0,0a39,39,0,0,0,0,4.46c.06,1.49.15,3,.26,4.46a14.9,14.9,0,0,0,.31,2.14,7.83,7.83,0,0,0,.34,1,3.3,3.3,0,0,0,.55.84,2.15,2.15,0,0,0,1.72.71,4.45,4.45,0,0,0,1.93-.6l-.17.24a36.62,36.62,0,0,0,.54-4,20.28,20.28,0,0,0-.05-4,4.87,4.87,0,0,0-1.82-3.39A9.14,9.14,0,0,0,17.84,132.61Z"/><path class="cls-4" d="M67.82,139.6s4,3.13,6.83-2.62,1.8-10.81-4.68-6.78C70,130.2,67.16,133,67.82,139.6Z"/><path class="cls-2" d="M67.82,139.6a4.45,4.45,0,0,0,2.63.71,3.79,3.79,0,0,0,2.37-1.13,12.06,12.06,0,0,0,2.51-4.81,9.43,9.43,0,0,0,.44-2.66,2.82,2.82,0,0,0-.81-2.24,2.57,2.57,0,0,0-2.37-.14,8.74,8.74,0,0,0-1.25.49c-.41.2-.8.44-1.2.66l0,0a7.94,7.94,0,0,0-1.25,2,11.64,11.64,0,0,0-.74,2.3,16.6,16.6,0,0,0-.35,2.42C67.79,138,67.8,138.76,67.82,139.6Zm0,0-.15-1.23c0-.41,0-.83-.06-1.24a13.85,13.85,0,0,1,.18-2.49,12.21,12.21,0,0,1,.65-2.44,7.56,7.56,0,0,1,1.3-2.23l0,0,0,0c.42-.24.83-.49,1.25-.71a9.32,9.32,0,0,1,1.35-.55,5.24,5.24,0,0,1,1.49-.27,5.36,5.36,0,0,1,.79.11,2.45,2.45,0,0,1,.74.37l.32.28a2.44,2.44,0,0,1,.23.33,2.39,2.39,0,0,1,.33.73,4.49,4.49,0,0,1,.19,1.49,9.77,9.77,0,0,1-.52,2.86,11.38,11.38,0,0,1-2.84,4.94l-.58.45c-.21.13-.44.23-.65.35a4,4,0,0,1-1.44.26A4.29,4.29,0,0,1,67.82,139.6Z"/><path class="cls-4" d="M78.49,138.23s4,1.5,5.52-1.25,1-6.41-2.76-7.58S76.49,140.23,78.49,138.23Z"/><path class="cls-2" d="M78.48,138.23a6.9,6.9,0,0,0,3.31.13,3.27,3.27,0,0,0,1.4-.71,4,4,0,0,0,.82-1.34,6,6,0,0,0,.36-3.15,4.15,4.15,0,0,0-1.61-2.59,5.52,5.52,0,0,0-1.4-.74,1.3,1.3,0,0,0-1.31,0,5.19,5.19,0,0,0-1.65,2.64,13.77,13.77,0,0,0-.71,3.25,8.52,8.52,0,0,0-.06,1.67,2.29,2.29,0,0,0,.19.79.32.32,0,0,0,.3.19A.74.74,0,0,0,78.48,138.23Zm0,0a.9.9,0,0,1-.35.25.41.41,0,0,1-.4-.19,2.07,2.07,0,0,1-.29-.82,8.3,8.3,0,0,1-.12-1.72,14.17,14.17,0,0,1,.53-3.41,7.26,7.26,0,0,1,.64-1.63,3.8,3.8,0,0,1,1.19-1.41,2,2,0,0,1,1.92-.15,6,6,0,0,1,1.61.82A4.9,4.9,0,0,1,85,133a6,6,0,0,1-.5,3.49,4.29,4.29,0,0,1-1,1.47,3.55,3.55,0,0,1-1.64.72A6.58,6.58,0,0,1,78.48,138.23Z"/><path class="cls-4" d="M89.23,129.32s4.3-2,3.78,2.45-4.56,7.28-5,6.87S86,129.41,89.23,129.32Z"/><path class="cls-2" d="M89.22,129.32a5,5,0,0,1,1.52-.52,2.4,2.4,0,0,1,1.63.23,2.07,2.07,0,0,1,.87,1.46,6.15,6.15,0,0,1,0,1.66,9.73,9.73,0,0,1-3,5.68,7.11,7.11,0,0,1-1.36,1,2.41,2.41,0,0,1-.43.18,1.16,1.16,0,0,1-.29.05l-.22,0a.48.48,0,0,1-.23-.17,1.51,1.51,0,0,1-.21-.48,3.11,3.11,0,0,1-.11-.41,15.75,15.75,0,0,1-.41-3.19,12.89,12.89,0,0,1,.25-3.22,4.11,4.11,0,0,1,.64-1.49A1.62,1.62,0,0,1,89.22,129.32Zm0,0a1.56,1.56,0,0,0-1.22.83,3.84,3.84,0,0,0-.45,1.45,12.93,12.93,0,0,0,0,3.11,22.33,22.33,0,0,0,.5,3.07c0,.12.06.24.1.36a2.39,2.39,0,0,0,.1.25c-.17-.11-.1,0,0-.09a1.3,1.3,0,0,0,.3-.13,5.92,5.92,0,0,0,1.19-.9,9.34,9.34,0,0,0,3-5.21c.16-1,.27-2.14-.5-2.73a2.1,2.1,0,0,0-1.41-.33A5.87,5.87,0,0,0,89.22,129.32Z"/><path class="cls-4" d="M97.87,128.35s-.62,6.88,0,7.88,5.94-.77,3.78-7.88C101.65,128.35,98.25,126.46,97.87,128.35Z"/><path class="cls-2" d="M97.87,128.35a40.06,40.06,0,0,0-.14,4.65,21.44,21.44,0,0,0,.17,2.3c0,.35.17.81.28.82a1.49,1.49,0,0,0,.89-.07,4.38,4.38,0,0,0,2.61-3.18,9.26,9.26,0,0,0-.15-4.49l.06.07a7,7,0,0,0-2-.84,2.11,2.11,0,0,0-1.06,0A.94.94,0,0,0,97.87,128.35Zm0,0a1,1,0,0,1,.67-.78,2.36,2.36,0,0,1,1.09,0,8.54,8.54,0,0,1,2.07.69l0,0,0,.05a9.38,9.38,0,0,1,.57,4.71,4.58,4.58,0,0,1-3.06,3.68,1.85,1.85,0,0,1-1.38,0,.7.7,0,0,1-.3-.34,1.67,1.67,0,0,1-.11-.34,4.53,4.53,0,0,1-.07-.62,22.92,22.92,0,0,1,0-2.35Z"/><path class="cls-4" d="M86.53,141.65s4.08-2.52,6.52-1.47-1.8,14-4.18,10A18.48,18.48,0,0,1,86.53,141.65Z"/><path class="cls-2" d="M86.53,141.65A13.41,13.41,0,0,1,89.86,140a6.84,6.84,0,0,1,1.87-.31,4.71,4.71,0,0,1,1,.09c.16.06.31.09.48.16a1.32,1.32,0,0,1,.46.38,3.44,3.44,0,0,1,.45,2,10.81,10.81,0,0,1-.19,1.89,19,19,0,0,1-1,3.61,11.73,11.73,0,0,1-.85,1.7A5.05,5.05,0,0,1,90.78,151a1.44,1.44,0,0,1-1.13.28,1.52,1.52,0,0,1-.91-.67,10.91,10.91,0,0,1-.88-1.69A17.27,17.27,0,0,1,86.53,141.65Zm0,0a19.18,19.18,0,0,0,.63,3.62,17.23,17.23,0,0,0,1.23,3.42,17.43,17.43,0,0,0,.87,1.55.7.7,0,0,0,1.13.21,7.59,7.59,0,0,0,1.81-2.94,17.25,17.25,0,0,0,1-3.46,9.71,9.71,0,0,0,.21-1.77,3.34,3.34,0,0,0-.27-1.62.62.62,0,0,0-.22-.21c-.12-.06-.26-.1-.39-.15a3.36,3.36,0,0,0-.85-.13,6.71,6.71,0,0,0-1.77.19A15.4,15.4,0,0,0,86.53,141.65Z"/><path class="cls-4" d="M97.59,139.6s4.74-2.63,5.32,0-2.22,11.09-5.32,5.86Z"/><path class="cls-2" d="M97.59,139.6a11.14,11.14,0,0,1,2-1,4.65,4.65,0,0,1,2.27-.35,1.61,1.61,0,0,1,1.07.68,2.37,2.37,0,0,1,.37,1.18,8.65,8.65,0,0,1-.17,2.28,9.47,9.47,0,0,1-1.8,4.19,2.86,2.86,0,0,1-1,.76,1.65,1.65,0,0,1-1.34,0,3.8,3.8,0,0,1-1.63-1.72l0-.08v-.07C97.36,143.46,97.45,141.48,97.59,139.6Zm0,0c.14,2,.23,4,.29,5.86l0-.15a3.44,3.44,0,0,0,1.39,1.39c.54.23,1.09-.09,1.53-.6a9.81,9.81,0,0,0,1.66-3.85,9,9,0,0,0,.24-2.11,1.28,1.28,0,0,0-.92-1.42,4.65,4.65,0,0,0-2.08.15A14.57,14.57,0,0,0,97.59,139.6Z"/><path class="cls-5" d="M37.11,92.78a8.59,8.59,0,0,0-1,3.32c-.45,4.4,0,13.17,11.38,10.13,15-4,20.23-17.9,20.23-17.9S75.28,73.18,48.53,71a7.76,7.76,0,0,0-7.48,4c-1,2-1.79,4.87-1.63,9.17a10.92,10.92,0,0,1-.28,2.84A23.52,23.52,0,0,1,37.11,92.78Z"/><path d="M50.09,76.73C48.74,78,46.86,81.09,46.6,88.85a5.17,5.17,0,0,1-.85,2.67c-1.21,1.83-3.25,5.68-2.13,9.72a.94.94,0,0,1-.87,1.21c-2,0-5.3-1.28-.26-11.75a7.89,7.89,0,0,0,.79-3.3c0-4.06.76-13.84,6.41-12.28A1,1,0,0,1,50.09,76.73Z"/><path class="cls-5" d="M52.35,61.69s21.64,4,23.64-13C77.83,33,78.83,23.3,65.57,24.27a10.39,10.39,0,0,0-8.16,5,36,36,0,0,0-3.64,9.2A15.32,15.32,0,0,1,51,44.08C47.15,48.84,40.35,59.36,52.35,61.69Z"/><path d="M55.27,59a.77.77,0,0,0,.56-.91c-.43-1.9-1.49-7.38.16-9.17,2-2.18,10-17.7,9.5-19.44-.45-1.55-5.28.67-7,7.57A45,45,0,0,1,55.32,46C54,48.64,52.38,51.27,51,51.73,48.17,52.67,51.53,59.8,55.27,59Z"/><path class="cls-5" d="M84,56.73s0,14,14,13c0,0-8,19,0,19s8.56-.53,9.78-17.75c0,0,2-4.67,3.89,4.13a3.07,3.07,0,0,0,3.3,2.5c1.49-.2,3.06-1.62,3.41-6.44a.49.49,0,0,1,.25-.4c1.17-.59,6.24-4.37,4.82-24.91a21.29,21.29,0,0,0-5.17-12.64c-4-4.6-10.86-8.91-21-5.07a7.79,7.79,0,0,0-3.6,2.75c-1.62,2.31-2.8,5.47,6.84,1.5a.46.46,0,0,1,.57.68c-3,4.49-12.32,19.45-7.62,29.62a.74.74,0,0,1-.79,1c-2.51-.41-7.32-3.12-3.32-18.86a4.24,4.24,0,0,0-.76-3.61C86.67,38.78,83.26,37,84,56.73Z"/><path class="cls-2" d="M93,18.73A57.37,57.37,0,0,1,105.85,17a43.17,43.17,0,0,1,13.05,1.55,25.29,25.29,0,0,1,11.55,6.78,24.16,24.16,0,0,1,6,12.13l0,.1v.12c.18,5.33.4,10.66.52,16s.28,10.66.36,16v.23a18,18,0,0,0,0,4.64,11.85,11.85,0,0,0,1.33,4.32,7.21,7.21,0,0,0,3.11,3,10.89,10.89,0,0,0,4.47,1,24.65,24.65,0,0,1,10,2.48,21.24,21.24,0,0,1,7.8,6.39,19.75,19.75,0,0,0-3.83-3.18,23.08,23.08,0,0,0-4.39-2.26,24.69,24.69,0,0,0-9.56-1.66,12.74,12.74,0,0,1-5.32-.88,9.47,9.47,0,0,1-4.21-3.68,14,14,0,0,1-1.86-5.14,21.07,21.07,0,0,1-.15-5.39v.23c-.26-5.33-.46-10.66-.64-16s-.33-10.67-.48-16l0,.22a22.51,22.51,0,0,0-5-10.89,22.77,22.77,0,0,0-4.66-3.91,26.35,26.35,0,0,0-5.6-2.64,45.45,45.45,0,0,0-12.43-2.29A71.83,71.83,0,0,0,93,18.73Z"/></g></g></svg>