<svg width="39" height="30" viewBox="0 0 39 30" fill="none" xmlns="http://www.w3.org/2000/svg">
<path d="M32.5712 3.27978C30.1451 2.21478 27.5458 1.43034 24.8289 0.988512C24.8047 0.984034 24.7797 0.987058 24.7574 0.997167C24.735 1.00728 24.7164 1.02397 24.7041 1.04493C24.3735 1.62003 24.0056 2.36946 23.7479 2.96141C20.8667 2.5485 17.9389 2.55848 15.0605 2.991C14.7691 2.33692 14.4407 1.69931 14.0771 1.08113C14.0648 1.05999 14.0462 1.04304 14.0238 1.03256C14.0014 1.02208 13.9763 1.01855 13.9518 1.02245C11.2396 1.48277 8.64574 2.28489 6.2254 3.36795C6.20457 3.37662 6.18694 3.39133 6.17488 3.41012C1.27195 10.5431 -0.054949 17.4881 0.631785 24.3391C0.633688 24.3559 0.639047 24.3721 0.647535 24.3868C0.656023 24.4014 0.667463 24.4143 0.681158 24.4245C3.56402 26.4716 6.77699 28.0277 10.1855 29.0274C10.2093 29.0345 10.2347 29.0344 10.2584 29.0271C10.2821 29.0198 10.303 29.0056 10.3184 28.9865C11.0478 28.0213 11.6937 26.9977 12.2491 25.9265C12.2568 25.9119 12.2612 25.8958 12.262 25.8793C12.2629 25.8628 12.2601 25.8464 12.2539 25.8311C12.2477 25.8158 12.2382 25.8019 12.2261 25.7905C12.2139 25.7791 12.1995 25.7704 12.1836 25.765C11.1595 25.3901 10.167 24.9368 9.21508 24.4094C9.19797 24.3999 9.18354 24.3863 9.17307 24.37C9.16261 24.3537 9.15644 24.335 9.15512 24.3157C9.1538 24.2965 9.15737 24.2772 9.1655 24.2596C9.17364 24.242 9.1861 24.2267 9.20175 24.215C9.40075 24.0697 9.59973 23.9181 9.78921 23.7666C9.80626 23.753 9.82683 23.7443 9.84863 23.7414C9.87042 23.7386 9.89259 23.7418 9.91265 23.7506C16.1395 26.4732 22.8732 26.4503 29.0086 23.6856C29.0286 23.6761 29.051 23.6723 29.0731 23.6747C29.0952 23.6771 29.1162 23.6856 29.1337 23.6992C29.3242 23.8509 29.5226 24.0011 29.7242 24.1451C29.7401 24.1565 29.7528 24.1715 29.7614 24.1889C29.7699 24.2062 29.7739 24.2254 29.773 24.2447C29.7721 24.2639 29.7664 24.2827 29.7563 24.2993C29.7463 24.3158 29.7322 24.3297 29.7154 24.3396C28.7704 24.8779 27.7871 25.3339 26.7545 25.7138C26.7387 25.7195 26.7242 25.7285 26.7122 25.7401C26.7001 25.7518 26.6908 25.7658 26.6847 25.7813C26.6786 25.7967 26.6759 25.8133 26.6769 25.8299C26.6778 25.8465 26.6824 25.8626 26.6902 25.8773C27.2638 26.944 27.9196 27.959 28.6401 28.9225C28.6551 28.9423 28.6759 28.957 28.6997 28.9648C28.7235 28.9725 28.7492 28.9728 28.7732 28.9656C32.1807 27.9455 35.3883 26.3669 38.2603 24.2965C38.2743 24.2868 38.286 24.2743 38.2947 24.2597C38.3034 24.2452 38.3088 24.2291 38.3106 24.2123C39.0753 16.2862 36.9334 9.409 32.6204 3.32317C32.6098 3.30338 32.5923 3.28798 32.5712 3.27978ZM13.1587 20.1231C11.2873 20.1295 9.73793 18.472 9.73098 16.4328C9.72403 14.392 11.232 12.7257 13.1335 12.7192C15.0493 12.7127 16.5844 14.3827 16.5612 16.4095C16.5682 18.4503 15.0602 20.1166 13.1587 20.1231ZM25.7854 20.0801C23.9123 20.0865 22.3646 18.429 22.3576 16.3898C22.3507 14.349 23.857 12.6827 25.7601 12.6762C27.6759 12.6697 29.2111 14.3397 29.1879 16.3665C29.1948 18.4073 27.7027 20.0736 25.7854 20.0801Z" fill="#C0D100"/>
</svg>
