<svg width="160" height="177" viewBox="0 0 160 177" fill="none" xmlns="http://www.w3.org/2000/svg">
<path d="M129.286 81.1086C129.181 81.0058 129.056 80.9254 128.92 80.872C128.783 80.8186 128.637 80.7934 128.49 80.7979C126.522 79.4917 122.07 76.7676 120.421 77.6995C118.191 78.95 109.485 90.9853 111.078 99.7469C111.078 99.7469 109.357 104 107.828 103.068C107.828 103.068 111.811 112.523 110.266 114.897C108.72 117.27 108.051 120.52 104.387 121.269C100.723 122.017 96.5496 117.907 100.229 110.412C100.229 110.412 101.138 98.7991 84.6019 112.802C84.6019 112.802 84.6019 121.563 77.1466 117.796C77.1466 117.796 74.4385 123.618 68.8629 120.432C68.8629 120.432 66.6964 128.334 60.611 122.822C60.611 122.822 51.3396 133.176 48.1536 121.229C48.1536 121.229 45.318 122.886 44.7445 121.229C44.171 119.572 44.3941 124.256 43.8843 125.116C43.3745 125.976 32.1995 129.282 27.8585 121.285C27.8585 121.285 24.1149 127.274 21.0165 118.29C21.0165 118.29 15.5763 120.233 13.1629 116.76L5.30132 116.513C3.53388 111.72 2.42459 106.71 2.00377 101.619C1.98874 101.439 2.01885 101.258 2.09138 101.093C3.8657 97.0551 6.01227 93.1913 8.50329 89.5516C8.83783 90.6747 10.9645 91.3676 11.8008 91.2402C13.2783 90.9953 14.7954 91.2064 16.1498 91.8455C16.9712 92.2503 17.8981 92.3895 18.8022 92.2438C21.2793 91.8455 22.5856 92.4429 23.2626 93.0403C23.5506 93.311 23.8901 93.5211 24.261 93.6579C24.6318 93.7947 25.0264 93.8556 25.4212 93.8368C28.193 93.6218 29.2365 94.3386 29.6268 94.9201C29.7389 95.0992 29.9017 95.241 30.0946 95.3275C30.2874 95.414 30.5016 95.4413 30.71 95.4059C37.3927 94.1076 39.3999 96.6724 39.9973 98.592C40.0444 98.75 40.1269 98.8953 40.2386 99.0166C40.3504 99.1379 40.4883 99.2322 40.6419 99.2921C40.7956 99.352 40.9609 99.3761 41.1253 99.3624C41.2896 99.3487 41.4487 99.2977 41.5904 99.2133C42.1764 98.8307 42.8866 98.6868 43.5753 98.8112C44.264 98.9357 44.879 99.3189 45.2941 99.8823C45.4489 100.046 45.6504 100.159 45.8713 100.204C46.0921 100.25 46.3216 100.227 46.5287 100.137C49.436 98.9584 52.2955 100.862 53.4265 101.73C53.5777 101.855 53.7611 101.935 53.9555 101.96C54.1499 101.985 54.3475 101.955 54.5257 101.874C56.9291 100.892 59.6171 100.87 62.0368 101.81C62.1884 101.866 62.3506 101.888 62.5116 101.874C62.6727 101.86 62.8288 101.811 62.9687 101.73C65.5016 100.36 67.1982 101.093 68.0027 101.682C68.1827 101.804 68.3949 101.868 68.612 101.868C68.8291 101.868 69.0412 101.804 69.2213 101.682C72.5667 99.5 74.7969 100.249 75.8881 100.886C76.0811 101.014 76.3102 101.075 76.5412 101.063C76.7722 101.05 76.9929 100.963 77.1705 100.814C79.8468 98.4645 86.2189 98.6876 84.0125 106.438C82.1965 112.81 85.6055 109.879 87.334 108.102C87.9298 107.491 88.2738 106.678 88.2977 105.824C88.4093 102.089 88.704 91.3836 88.2977 90.0295C87.788 88.3887 95.1796 82.1122 95.1796 82.1122C108.418 60.3754 128.466 80.2802 129.286 81.1086Z" fill="black" stroke="black" stroke-width="3" stroke-miterlimit="10" stroke-linecap="round"/>
<path d="M56.9865 175.001C53.2588 175.001 49.6745 172.142 49.0214 171.616C47.97 170.947 45.4371 167.96 46.6796 154.985C47.1177 150.469 46.1778 146.845 43.8919 144.2C41.2554 141.15 37.1693 139.915 34.2222 139.772H34.0868C33.7517 139.845 33.4102 139.885 33.0673 139.891H32.8761C32.9055 140.017 32.9688 140.133 33.0593 140.226L33.1867 140.329L33.2744 140.473L33.4655 140.743L33.8956 141.245C34.7399 142.233 35.7037 143.348 35.6719 145.164C35.6683 145.212 35.6683 145.26 35.6719 145.307C37.0658 150.517 35.3692 153.368 34.6683 153.958C34.5558 154.043 34.4388 154.123 34.3178 154.196C31.6256 155.845 29.3396 156.642 27.3404 156.642C24.9508 156.642 20.8408 155.367 20.2196 146.837V146.638C19.8351 144.507 19.9029 142.32 20.4187 140.218C20.4187 140.218 20.4744 139.772 20.4904 139.676C19.9156 139.251 19.4624 138.682 19.1761 138.027C19.0588 137.773 18.9089 137.534 18.7301 137.318L18.2761 137.231L18.053 136.88C18.053 136.841 17.9814 136.801 17.9495 136.753C12.5464 131.368 8.37982 124.873 5.73898 117.716L5.1416 116.06L6.90189 116.115H7.60282C9.37122 116.114 11.135 115.935 12.8678 115.582L13.6643 115.406L14.1262 116.068C14.5435 116.604 15.0889 117.028 15.7123 117.299C16.3358 117.571 17.0174 117.681 17.6946 117.621C18.6788 117.607 19.6556 117.448 20.5939 117.151L21.7329 116.753L22.1232 117.884C23.4534 121.731 24.6561 122.033 24.9907 122.033C25.7075 122.033 26.5837 121.078 26.8226 120.639L27.9059 118.903L28.8856 120.695C30.9804 124.534 34.8276 125.347 37.6472 125.347C38.3238 125.345 38.9996 125.3 39.6703 125.211L40.1005 125.156C40.5365 125.075 40.9793 125.038 41.4227 125.044C42.4502 125.044 42.6334 125.044 42.9042 124.12C42.9021 124.096 42.9021 124.072 42.9042 124.049C42.9599 123.603 42.9998 123.061 43.0396 122.551C43.1511 120.958 43.2387 119.731 44.5052 119.731C44.8075 119.742 45.0981 119.851 45.3326 120.043C45.567 120.234 45.7324 120.497 45.8035 120.791C46.4015 120.715 46.9769 120.514 47.4921 120.201L48.8461 119.405L49.2444 120.91C50.1604 124.168 51.5224 125.849 53.3464 125.849C55.8077 125.849 58.7946 123.109 59.7185 122.057L60.515 121.165L61.3992 121.962C62.5939 123.053 63.6931 123.626 64.5852 123.626C66.68 123.626 67.6996 120.201 67.7075 120.17L68.1217 118.696L69.4519 119.493C70.2367 119.978 71.1341 120.253 72.0565 120.289C74.6531 120.289 76.039 117.414 76.039 117.382L76.5568 116.283L77.648 116.824C78.5008 117.293 79.448 117.566 80.4198 117.621H80.619C80.8674 117.439 81.1344 117.284 81.4155 117.159C81.713 117.061 81.9859 116.9 82.2155 116.687C82.4451 116.474 82.6259 116.214 82.7457 115.924C82.8173 115.757 82.8651 115.637 82.9129 115.51C83.1969 114.667 83.3526 113.786 83.3749 112.897V112.308L83.797 111.95C89.508 107.107 93.7614 104.781 96.7961 104.781C97.396 104.76 97.9935 104.867 98.5494 105.093C99.1054 105.32 99.6072 105.661 100.022 106.095C101.028 107.367 101.514 108.972 101.384 110.588V110.819L101.28 111.018C99.791 114.06 99.568 116.824 100.683 118.608C100.977 119.091 101.39 119.491 101.882 119.77C102.374 120.049 102.929 120.197 103.495 120.201C103.706 120.204 103.917 120.183 104.124 120.138C106.338 119.676 107.175 118.075 108.107 116.219C108.445 115.547 108.817 114.893 109.222 114.259C109.946 113.16 108.489 107.84 106.673 103.562L105.223 100.137L108.306 101.953C108.953 101.259 109.464 100.448 109.811 99.5638C108.425 90.3562 117.155 78.1058 119.807 76.6163C120.248 76.3822 120.742 76.2644 121.241 76.2738C123.416 76.2738 126.729 78.1695 129.119 79.7626L132.416 81.953H128.434C123.798 90.0057 125.032 97.0707 125.032 97.1743C128.513 122.209 113.172 133.71 108.258 136.705C110.185 139.469 109.413 143.38 109.126 144.527C109.075 144.711 109.006 144.89 108.919 145.061C106.123 149.983 103.184 152.452 100.157 152.452C96.8598 152.452 94.8128 149.545 94.4384 148.963C94.3533 148.84 94.2838 148.706 94.2313 148.565C93.0983 145.567 93.0364 142.269 94.0561 139.23C94.1681 138.925 94.2147 138.6 94.1927 138.277C94.1708 137.953 94.0808 137.637 93.9287 137.35L93.8809 137.231C93.4198 136.834 93.0317 136.359 92.7339 135.829C92.6383 135.678 92.5188 135.486 92.4392 135.383H92.1524L91.8099 135.24L91.4276 135.064C90.5307 134.642 89.5514 134.425 88.5602 134.427C87.4053 134.424 86.2665 134.697 85.2387 135.224C79.1454 138.41 79.0419 139.875 78.6994 144.742C78.6118 146.032 78.5082 147.498 78.2772 149.258C77.4329 155.63 73.5778 156.148 72.4229 156.148C71.398 156.127 70.3947 155.85 69.5043 155.343C68.6139 154.835 67.8648 154.112 67.3252 153.241C66.8742 152.554 66.6105 151.761 66.5602 150.941C66.5099 150.121 66.6748 149.302 67.0385 148.565C67.9783 146.693 66.4809 143.786 65.2702 141.397L64.9755 140.815C64.9097 140.672 64.859 140.523 64.8242 140.369C64.7405 140.14 64.6818 139.902 64.6489 139.66C64.6489 139.525 64.6489 139.381 64.5932 139.222V139.047C64.2832 139.443 63.8922 139.769 63.4462 140.003V140.09L63.2152 140.552C58.6432 149.951 63.8843 159.175 64.9835 160.927C65.24 161.339 65.3598 161.821 65.326 162.305C64.4179 172.843 60.3 175.001 56.9865 175.001Z" fill="#C0D100"/>
<path d="M121.273 77.5084C123.28 77.5084 126.801 79.6749 128.489 80.798C128.29 80.7998 128.095 80.8527 127.922 80.9517C127.749 81.0507 127.604 81.1925 127.502 81.3635C122.46 89.9499 123.822 97.3575 123.822 97.3575C127.231 121.834 112.049 132.962 107.541 135.694C107.405 135.775 107.288 135.884 107.197 136.015C107.107 136.145 107.045 136.293 107.016 136.449C106.988 136.605 106.993 136.766 107.031 136.92C107.069 137.074 107.14 137.218 107.239 137.342C108.927 139.732 108.139 143.404 107.939 144.2C107.909 144.298 107.872 144.394 107.828 144.487C104.865 149.704 102.205 151.226 100.118 151.226C97.4494 151.226 95.705 148.748 95.4024 148.278C95.3625 148.229 95.3327 148.172 95.3148 148.111C94.2674 145.371 94.2083 142.352 95.1475 139.573C95.3097 139.118 95.3764 138.636 95.3435 138.155C95.3106 137.674 95.1788 137.205 94.9563 136.777C94.9085 136.657 94.8448 136.538 94.7891 136.418C93.6182 135.622 93.5624 134.148 92.4553 134.148H92.2721L91.8659 133.957C90.8171 133.473 89.6756 133.223 88.5205 133.224C87.1723 133.229 85.8448 133.556 84.6495 134.18C76.2542 138.569 78.1738 140.648 77.0587 149.115C76.4852 153.424 74.4223 154.969 72.3832 154.969C69.5078 154.969 66.6722 151.911 68.0661 149.115C69.3007 146.646 67.5563 143.332 66.2102 140.704C66.1386 140.568 66.0748 140.425 66.0032 140.289C65.9679 140.205 65.9438 140.117 65.9315 140.027C65.8547 139.858 65.8063 139.677 65.7881 139.493C65.7881 139.381 65.7881 139.254 65.7403 139.127C65.6766 137.964 65.6766 137.167 65.6766 137.167C65.4978 137.069 65.2987 137.015 65.0951 137.008C64.0517 137.008 63.8526 138.808 62.4109 139.111C62.4109 139.206 62.3312 139.302 62.2994 139.405C62.2675 139.509 62.2516 139.62 62.2277 139.74L62.0764 140.05C57.2256 150.023 62.7852 159.788 63.9083 161.556C64.0315 161.751 64.0874 161.98 64.0676 162.209C63.3348 171.337 60.1647 173.775 56.9866 173.775C53.3705 173.775 49.7464 170.589 49.7464 170.589C49.7464 170.589 46.5603 168.996 47.9064 155.049C49.1569 141.97 39.1448 138.768 34.318 138.529H34.0232C33.72 138.6 33.4105 138.64 33.0993 138.649C32.5736 138.649 32.2231 138.465 32.2231 137.94C31.8349 138.371 31.6241 138.934 31.6329 139.514C31.6418 140.095 31.8697 140.65 32.2709 141.07C32.3506 141.189 32.4302 141.301 32.5178 141.412C33.4736 142.591 34.5728 143.507 34.4693 145.252C34.4693 145.355 34.525 145.459 34.5569 145.562C35.7915 150.166 34.3737 152.619 33.9436 152.986L33.7365 153.121C31.108 154.714 29.0291 155.391 27.3644 155.391C23.119 155.391 21.741 150.971 21.4304 146.693V146.438C21.051 144.426 21.1162 142.354 21.6216 140.369C21.6216 140.266 21.6216 140.17 21.6614 140.074C21.7012 139.788 21.7331 139.541 21.7649 139.342C21.7808 139.247 21.7808 139.15 21.7649 139.055C21.7551 138.962 21.7337 138.871 21.7012 138.784C20.2675 138.736 20.2675 136.347 19.017 136.108L18.8577 135.909C13.5513 130.642 9.4576 124.281 6.86222 117.27H7.59501C9.46791 117.271 11.3361 117.082 13.1706 116.705C13.6963 117.401 14.3877 117.956 15.1819 118.317C15.9761 118.679 16.8481 118.836 17.7187 118.776C18.8417 118.765 19.9564 118.582 21.0242 118.234C22.3464 122.089 23.796 123.188 25.0067 123.188C26.5998 123.188 27.8503 121.229 27.8503 121.229C30.1203 125.379 34.2224 126.502 37.7031 126.502C38.4303 126.501 39.1566 126.453 39.8776 126.358L40.3396 126.295C41.8052 125.976 43.3982 126.773 44.1071 124.423C44.1248 124.341 44.1381 124.259 44.1469 124.176C44.3221 122.886 44.3221 120.886 44.569 120.886C44.6248 120.886 44.6885 120.99 44.7682 121.229C44.8487 121.456 45.003 121.651 45.2065 121.78C45.4099 121.91 45.6509 121.968 45.8913 121.946C46.6982 121.863 47.4779 121.608 48.1772 121.197C49.3481 125.562 51.3155 126.948 53.3546 126.948C56.899 126.948 60.6426 122.758 60.6426 122.758C62.2357 124.2 63.534 124.734 64.6252 124.734C67.7157 124.734 68.8945 120.401 68.8945 120.401C69.8552 120.991 70.9534 121.321 72.0805 121.356C75.4976 121.356 77.1702 117.764 77.1702 117.764C78.1826 118.325 79.3113 118.644 80.4678 118.696C80.6243 118.704 80.7812 118.704 80.9377 118.696L81.2245 118.68C81.6307 118.067 83.2237 118.067 83.9246 116.291C83.9884 116.139 84.0441 115.988 84.0999 115.837C84.4292 114.866 84.6091 113.851 84.6335 112.826C90.8304 107.529 94.582 105.936 96.8361 105.936C100.588 105.936 100.237 110.452 100.237 110.452C96.8441 117.358 100.118 121.404 103.519 121.404C103.811 121.404 104.102 121.372 104.387 121.309C108.059 120.512 108.688 117.326 110.265 114.936C111.842 112.547 107.836 103.108 107.836 103.108C107.97 103.198 108.128 103.246 108.29 103.244C109.684 103.244 111.078 99.7868 111.078 99.7868C109.485 91.0252 118.199 78.9899 120.421 77.7394C120.685 77.6064 120.978 77.5407 121.273 77.5483M121.273 75.1587C120.566 75.1457 119.869 75.3187 119.25 75.6605C116.151 77.3969 107.438 89.8305 108.616 99.4523C108.449 99.7942 108.263 100.127 108.059 100.448L102.73 97.1743L105.63 104.008C107.302 107.943 108.513 112.499 108.218 113.678C107.788 114.331 107.422 115 107.103 115.645C106.092 117.597 105.51 118.624 103.917 118.951C103.792 118.982 103.664 118.998 103.535 118.999C103.167 118.99 102.808 118.887 102.493 118.698C102.177 118.51 101.916 118.243 101.735 117.923C100.843 116.498 101.089 114.156 102.396 111.488L102.595 111.081V110.627C102.595 110.285 102.794 107.266 100.914 105.227C100.391 104.675 99.7577 104.24 99.0549 103.951C98.352 103.661 97.5959 103.523 96.8361 103.546C93.5067 103.546 89.0064 105.992 83.0644 111.026L82.2121 111.75V112.858C82.1822 113.608 82.0482 114.35 81.8139 115.064C81.8139 115.159 81.7422 115.255 81.7024 115.351V115.398V115.446C81.6068 115.701 81.5192 115.765 80.9616 116.036C80.7705 116.131 80.5474 116.243 80.3165 116.378C79.5903 116.287 78.8878 116.06 78.2455 115.709L76.0551 114.61L75.0117 116.84C75.0117 116.84 73.9205 119.046 72.0965 119.046C71.3812 119.01 70.6872 118.791 70.0813 118.409L67.405 116.88L66.6085 119.851C66.3616 120.711 65.5014 122.424 64.6411 122.424C64.3783 122.424 63.6057 122.288 62.2516 121.07L60.4674 119.477L58.8744 121.277C57.8787 122.384 55.2264 124.67 53.3705 124.67C51.881 124.67 50.981 122.503 50.5031 120.687L49.7065 117.661L46.9984 119.254C46.8279 119.348 46.6524 119.433 46.4727 119.508C46.2526 119.215 45.9678 118.976 45.6404 118.81C45.313 118.644 44.9519 118.556 44.585 118.553C44.2186 118.553 42.3707 118.68 42.0441 121.141C41.9963 121.524 41.9565 121.986 41.9246 122.479C41.8928 122.973 41.8529 123.459 41.8052 123.857H41.3989C40.8838 123.854 40.3693 123.897 39.8617 123.985C39.7487 124.009 39.6343 124.025 39.5192 124.033C38.8989 124.118 38.2735 124.161 37.6474 124.16C33.9595 124.16 31.3549 122.806 29.8973 120.13L27.9379 116.545L25.7714 120.01C25.5608 120.326 25.2902 120.596 24.9749 120.807C24.7439 120.624 24.027 119.891 23.2066 117.501L22.4101 115.223L20.1401 116.02C19.3297 116.271 18.4875 116.406 17.639 116.418C15.7752 116.418 15.2495 115.621 15.0504 115.375L14.1264 114.052L12.5334 114.411C10.8861 114.739 9.21092 114.907 7.53129 114.913H6.87019L3.34961 114.809L4.54438 118.115C7.24627 125.419 11.5021 132.05 17.0177 137.549V137.549L17.5753 138.298L17.9497 138.37L18.0373 138.537C18.316 139.122 18.6842 139.659 19.1285 140.13C18.6202 142.296 18.5605 144.543 18.9533 146.733V146.877C19.6462 156.379 24.4651 157.797 27.2768 157.797C29.507 157.797 31.9921 156.944 34.8755 155.176C35.011 155.097 35.1414 155.009 35.2658 154.913L35.3216 154.874L35.3693 154.834C36.6916 153.727 38.1571 150.182 36.7632 144.965C36.7229 143.518 36.1761 142.131 35.218 141.046C38.1938 141.383 40.9511 142.773 42.992 144.965C45.047 147.354 45.8913 150.668 45.493 154.85C44.2743 167.554 46.5842 171.409 48.3126 172.556C49.2127 173.305 52.9085 176.172 56.9548 176.172C60.7701 176.172 65.5013 173.783 66.4253 162.409C66.4781 161.683 66.3027 160.959 65.9235 160.338V160.338C64.904 158.745 60.109 150.286 63.98 141.636L64.0756 141.827L64.1632 141.994C65.127 143.882 66.5527 146.773 65.9235 148.079C65.4673 148.998 65.2582 150.019 65.3168 151.043C65.3755 152.067 65.6999 153.057 66.258 153.918C66.9073 154.961 67.807 155.825 68.8754 156.431C69.9438 157.038 71.1469 157.368 72.3752 157.39C73.7771 157.39 78.4447 156.825 79.4164 149.425C79.6554 147.625 79.7589 146.144 79.8465 144.83C80.1731 140.146 80.2368 139.166 85.7407 136.291C86.5967 135.845 87.5472 135.61 88.5126 135.606C89.3185 135.602 90.1153 135.776 90.8463 136.116V136.116L91.1809 136.267L91.6906 136.506C91.992 137.011 92.3619 137.472 92.7898 137.876C92.8492 138.016 92.8798 138.166 92.8798 138.318C92.8798 138.47 92.8492 138.62 92.7898 138.76C91.6597 142.075 91.7331 145.682 92.9969 148.947C93.0819 149.164 93.1914 149.37 93.3235 149.561C93.8093 150.31 96.175 153.543 100.022 153.543C103.519 153.543 106.808 150.867 109.803 145.578V145.522V145.467C109.926 145.211 110.024 144.944 110.098 144.67C110.377 143.539 111.086 139.955 109.668 136.96C115.522 133.073 129.397 121.141 126.036 96.9194V96.8636V96.8159C126.036 96.7601 124.993 90.4438 129.079 83.076H136.247L129.812 78.8067C126.132 76.3615 123.256 75.1189 121.273 75.1189V75.1587Z" fill="black"/>
<path d="M84.1475 111.663C83.8744 111.668 83.604 111.607 83.3589 111.487C83.1137 111.366 82.9008 111.189 82.7377 110.97C82.1005 110.126 82.1323 108.748 82.8492 106.191C83.4386 104.136 83.3908 102.519 82.7217 101.635C82.4796 101.345 82.1721 101.116 81.8246 100.968C81.4771 100.82 81.0994 100.756 80.7225 100.782C79.7063 100.785 78.723 101.143 77.9427 101.794C77.5375 102.144 77.0202 102.336 76.4851 102.336C76.0451 102.337 75.6139 102.213 75.2425 101.977C74.6892 101.647 74.0551 101.476 73.4105 101.483C72.1291 101.554 70.8955 101.994 69.8581 102.75C69.4873 102.988 69.0562 103.115 68.6155 103.116C68.1414 103.118 67.6787 102.97 67.2933 102.694C66.832 102.355 66.2727 102.176 65.7003 102.184C64.934 102.214 64.1871 102.433 63.5258 102.822C63.179 103.012 62.7904 103.113 62.3948 103.116C62.1224 103.114 61.8526 103.062 61.5983 102.965C60.5098 102.56 59.3586 102.349 58.1972 102.344C57.1002 102.335 56.014 102.56 55.0111 103.005C54.7208 103.136 54.4058 103.204 54.0872 103.204C53.5677 103.201 53.0647 103.022 52.6614 102.694C51.4806 101.683 50.0065 101.077 48.4559 100.966C47.948 100.964 47.4448 101.061 46.9743 101.252C46.6915 101.369 46.3883 101.429 46.0822 101.428C45.7664 101.43 45.4536 101.366 45.1641 101.24C44.8745 101.114 44.6148 100.928 44.4016 100.695C44.2404 100.486 44.0387 100.313 43.8088 100.184C43.5789 100.055 43.3254 99.9745 43.0635 99.9461C42.7785 99.9634 42.5034 100.057 42.267 100.217C41.9704 100.407 41.6339 100.525 41.2839 100.563C40.9338 100.601 40.5797 100.558 40.2494 100.436C39.919 100.314 39.6215 100.117 39.38 99.8606C39.1386 99.6043 38.9599 99.2955 38.8579 98.9584C38.3083 97.1424 36.6834 96.2264 34.0151 96.2264C32.9824 96.2401 31.9531 96.3494 30.9406 96.553C30.8049 96.5855 30.6659 96.6015 30.5264 96.6008C30.155 96.5957 29.7905 96.5001 29.4644 96.3225C29.1383 96.1449 28.8603 95.8904 28.6546 95.5812C28.5829 95.4697 28.1608 94.9759 26.3845 94.9759C26.1217 94.9759 25.8349 94.9759 25.5243 94.9759H25.2455C24.2204 94.9621 23.2363 94.5707 22.4816 93.8767C21.8587 93.413 21.0895 93.1896 20.3151 93.2475C19.8749 93.2519 19.4356 93.2892 19.0009 93.359C18.7086 93.4069 18.4129 93.4309 18.1168 93.4307C17.2585 93.4275 16.4119 93.2315 15.6396 92.8572C14.8233 92.4701 13.9305 92.2714 13.0271 92.2757C12.6805 92.2791 12.3346 92.3057 11.9916 92.3554C11.6468 92.4141 11.2979 92.4461 10.9482 92.4509C10.3449 92.5185 9.73691 92.3732 9.22934 92.0402C8.72178 91.7072 8.3465 91.2073 8.16834 90.6269L7.94531 90.149L8.26392 89.6791C12.4838 83.6114 17.3822 78.045 22.864 73.0878C18.6982 62.9243 20.2355 53.2546 26.7509 48.5871C30.1839 46.1498 33.4337 32.1073 35.0267 20.0959C35.0476 19.8557 35.1181 19.6225 35.2338 19.4109C35.6957 18.3834 40.2757 9.00847 50.3675 9.00847C53.3569 9.06657 56.2999 9.75888 59.0017 11.0396C62.7671 12.8423 66.8714 13.8277 71.0449 13.9309C77.417 13.9309 80.8818 11.1113 81.5031 10.5457C81.6694 10.3941 81.8573 10.2679 82.0606 10.1714C93.9685 4.22144 105.12 1.1947 114.941 1.1947C137.625 1.1947 146.952 16.8143 148.625 20.0242C153.245 22.5332 156.24 26.1096 157.522 30.6656C160.278 40.4308 154.169 51.6935 152.918 53.8441C154.057 65.5448 143.4 73.7568 139.983 76.1464C142.587 79.3324 147.948 87.4887 143.169 96.3698C140.58 101.149 137.538 102.184 135.443 102.184C134.197 102.132 132.98 101.797 131.884 101.203C130.788 100.61 129.842 99.7739 129.118 98.7593C128.234 97.5406 127.924 96.3698 128.234 95.4299C128.664 94.1555 129.23 89.8543 129.756 83.9761V83.8805C129.451 83.1645 128.991 82.5252 128.41 82.0087C128.043 81.6343 119.648 73.2471 110.496 73.2471C105.382 73.2471 100.938 75.9074 97.2581 81.1405C96.3968 82.4024 95.3948 83.5622 94.2711 84.5973C91.8816 86.8037 89.5797 89.5994 89.4124 90.3322C89.2611 91.6385 89.3328 95.5653 89.4124 99.0301C89.4682 101.786 89.508 104.391 89.4602 106.008C89.4295 107.159 88.966 108.257 88.1619 109.082C85.9078 111.392 84.8245 111.695 84.1316 111.695L84.1475 111.663Z" fill="#C0D100"/>
<path d="M114.94 2.38953C137.322 2.38953 146.355 18.2481 147.597 20.5978C147.697 20.7954 147.856 20.9569 148.051 21.0597C164.69 30.0603 153.484 50.5306 151.899 53.2467C151.786 53.4505 151.738 53.6842 151.763 53.9158C152.83 65.067 142.667 72.8648 139.258 75.1587C139.129 75.2475 139.02 75.3623 138.938 75.4958C138.855 75.6293 138.802 75.7784 138.781 75.9337C138.76 76.089 138.772 76.247 138.816 76.3975C138.859 76.548 138.934 76.6876 139.035 76.8075C141.241 79.4838 146.689 87.3613 142.157 95.7645C140.078 99.6355 137.657 100.95 135.49 100.95C131.858 100.95 128.919 97.2619 129.413 95.7645C130.162 93.5422 130.895 85.0992 131.006 83.9443C131.022 83.82 131.022 83.6942 131.006 83.5699C130.66 82.6367 130.095 81.8006 129.357 81.1326V81.1326C128.832 80.5989 120.221 72.0444 110.615 72.0444C105.836 72.0444 100.802 74.1631 96.4056 80.4476C95.5878 81.6334 94.6422 82.7259 93.586 83.7053C91.4354 85.6647 88.4883 88.9862 88.3449 90.165C88.0582 92.6023 88.4803 102.224 88.3449 105.96C88.3171 106.812 87.9737 107.624 87.3812 108.238C86.4492 109.194 84.9916 110.492 84.1951 110.492C83.3986 110.492 83.2074 109.528 84.0438 106.573C85.4934 101.483 83.2473 99.6435 80.7701 99.6435C79.4671 99.6495 78.2074 100.112 77.2097 100.95C77.0205 101.11 76.7805 101.197 76.5327 101.197C76.3182 101.198 76.1081 101.137 75.9273 101.021C75.1831 100.571 74.3281 100.336 73.4581 100.344C71.9473 100.407 70.4879 100.911 69.2605 101.794C69.0828 101.91 68.8751 101.971 68.6632 101.969C68.44 101.972 68.2221 101.902 68.0419 101.77C67.3753 101.287 66.5713 101.03 65.7479 101.037C64.7822 101.069 63.84 101.343 63.0079 101.834C62.8344 101.929 62.6404 101.981 62.4424 101.985C62.3167 101.986 62.1921 101.962 62.076 101.914C60.8467 101.459 59.5476 101.221 58.2368 101.213C56.9678 101.216 55.7139 101.488 54.5569 102.009C54.4225 102.073 54.2755 102.105 54.1268 102.105C53.883 102.104 53.6466 102.02 53.4578 101.866C52.0608 100.684 50.3212 99.9836 48.4955 99.8665C47.8348 99.8656 47.1802 99.9927 46.5679 100.241C46.4267 100.3 46.275 100.33 46.1219 100.328C45.9723 100.332 45.8236 100.304 45.6861 100.245C45.5486 100.185 45.4255 100.097 45.3254 99.986C45.0499 99.6553 44.7102 99.3839 44.3269 99.1882C43.9436 98.9924 43.5246 98.8763 43.0952 98.847C42.5783 98.8556 42.0749 99.0132 41.6455 99.301C41.4644 99.4156 41.2545 99.4763 41.0402 99.4762C40.8051 99.4751 40.5769 99.3965 40.3911 99.2525C40.2053 99.1084 40.0723 98.9071 40.0127 98.6797C39.5268 97.0867 38.117 95.1034 34.0229 95.1034C32.915 95.1135 31.8106 95.2309 30.7253 95.4538C30.6619 95.4615 30.5977 95.4615 30.5342 95.4538C30.3554 95.4473 30.1808 95.3975 30.0254 95.3087C29.8701 95.2199 29.7385 95.0948 29.6421 94.9441C29.2996 94.4343 28.4553 93.821 26.3844 93.821C26.0976 93.821 25.779 93.821 25.4365 93.821H25.2453C24.5137 93.8075 23.8129 93.5238 23.278 93.0245C22.442 92.3535 21.3845 92.0209 20.3149 92.0926C19.8106 92.0964 19.3073 92.139 18.8095 92.22C18.5806 92.2584 18.3487 92.277 18.1166 92.2758C17.4401 92.2741 16.7729 92.1189 16.1651 91.8218C15.1843 91.3574 14.1121 91.1179 13.0269 91.1208C12.6215 91.1225 12.2168 91.1545 11.8162 91.2164C11.5292 91.2645 11.239 91.2911 10.948 91.2961C10.6054 91.348 10.2554 91.2795 9.95768 91.1023C9.65994 90.9251 9.43285 90.6502 9.31513 90.3243C13.4488 84.335 18.2597 78.8426 23.6523 73.956C23.8294 73.8017 23.9532 73.5954 24.0062 73.3666C24.0591 73.1377 24.0384 72.898 23.947 72.6816C19.5981 61.8889 22.0035 53.4379 27.4437 49.543C32.8839 45.648 35.9186 22.3501 36.2053 20.2234C36.2166 20.1171 36.2491 20.0142 36.3009 19.9207C36.8744 18.6622 41.1357 10.1794 50.4071 10.1794C53.2188 10.238 55.9857 10.8951 58.5236 12.107C62.4344 13.9952 66.7032 15.0271 71.0447 15.1337C77.9106 15.1337 81.6622 12.0273 82.2994 11.4379C82.3754 11.3695 82.4613 11.3131 82.5543 11.2706C95.5613 4.77906 106.258 2.38953 114.94 2.38953ZM114.94 0C104.896 0 93.6497 3.06657 81.487 9.11208C81.1977 9.25484 80.9296 9.43713 80.6905 9.65371C80.348 9.98028 77.138 12.7442 71.0447 12.7442C67.0425 12.6386 63.1073 11.6915 59.4953 9.96435C56.6479 8.60872 53.5442 7.87557 50.3912 7.81377C39.6064 7.81377 34.7159 17.6427 34.1185 18.9649C33.9589 19.2986 33.8566 19.6567 33.8158 20.0243C32.2626 31.8525 29.0367 45.5524 26.0578 47.6632C19.2556 52.4901 17.5033 62.2951 21.4141 72.7851C16.1169 77.6503 11.3801 83.0924 7.29199 89.0101L6.65479 89.942L6.98135 91.0332C7.23792 91.8569 7.76554 92.5696 8.47846 93.0555C9.19137 93.5414 10.0477 93.7719 10.9082 93.7095C11.3189 93.7035 11.7288 93.6689 12.1348 93.6059C12.4164 93.5587 12.7015 93.5347 12.987 93.5343C13.7214 93.5202 14.4491 93.6755 15.1137 93.9883C16.0457 94.4369 17.0663 94.671 18.1006 94.6733C18.4663 94.6761 18.8314 94.6468 19.1919 94.5856C19.5578 94.5245 19.928 94.4926 20.299 94.4901C20.7799 94.4335 21.2653 94.5492 21.669 94.8166C22.6441 95.7041 23.911 96.2029 25.2294 96.2185H25.5799C25.8746 96.2185 26.1295 96.2185 26.3764 96.2185C26.8386 96.1908 27.3017 96.2558 27.7384 96.4097C28.0582 96.851 28.4769 97.2113 28.961 97.4617C29.4452 97.712 29.9812 97.8455 30.5262 97.8513C30.7512 97.8516 30.9755 97.8275 31.1953 97.7797C32.1236 97.5904 33.0676 97.4891 34.0149 97.477C37.1452 97.477 37.5594 98.847 37.7187 99.3647C37.8746 99.8768 38.1467 100.346 38.5139 100.736C38.8811 101.125 39.3333 101.424 39.8354 101.61C40.3374 101.796 40.8756 101.863 41.4079 101.807C41.9402 101.75 42.4522 101.571 42.904 101.284C42.962 101.244 43.0268 101.214 43.0952 101.197C43.2706 101.285 43.4254 101.41 43.5492 101.563C43.8745 101.916 44.2699 102.198 44.7101 102.39C45.1503 102.582 45.6257 102.68 46.106 102.678C46.5675 102.679 47.0247 102.59 47.4521 102.415C47.7778 102.281 48.1272 102.213 48.4796 102.216C49.7647 102.34 50.9803 102.857 51.9603 103.698C52.4589 104.098 53.0594 104.351 53.694 104.429C54.3287 104.506 54.9724 104.405 55.5526 104.136C56.3945 103.771 57.3034 103.586 58.2209 103.594C59.24 103.605 60.2499 103.788 61.2078 104.136C61.5961 104.288 62.0094 104.366 62.4265 104.367C63.0196 104.364 63.6027 104.213 64.123 103.929C64.6067 103.639 65.1531 103.469 65.7161 103.435C66.0293 103.431 66.3359 103.526 66.5922 103.706C67.1586 104.116 67.8354 104.346 68.5344 104.366C69.2334 104.386 69.9222 104.194 70.5111 103.817C71.3577 103.195 72.3627 102.825 73.4104 102.75C73.8358 102.741 74.2553 102.851 74.6211 103.068C75.1793 103.419 75.8256 103.604 76.4849 103.602C77.3019 103.611 78.0952 103.328 78.7231 102.806C79.2887 102.346 79.9933 102.09 80.7223 102.081C80.9131 102.062 81.1058 102.085 81.2863 102.15C81.4668 102.215 81.6306 102.319 81.7658 102.455C82.0923 102.893 82.2516 104.048 81.702 105.968C80.9055 108.907 80.9055 110.58 81.7817 111.758C82.0607 112.127 82.4222 112.425 82.8372 112.628C83.2522 112.831 83.7091 112.935 84.1712 112.929C85.5651 112.929 87.0307 112.037 89.0618 109.95C90.0576 108.904 90.6259 107.523 90.6548 106.079C90.7106 104.438 90.6548 101.818 90.607 99.0461C90.5513 95.7565 90.4875 92.0448 90.607 90.6509C91.8776 88.7549 93.3875 87.0309 95.0993 85.5214C96.2939 84.4249 97.3625 83.1986 98.2854 81.8654C101.766 76.8951 105.773 74.4817 110.544 74.4817C119.194 74.4817 127.27 82.5185 127.589 82.861C127.964 83.2248 128.288 83.6374 128.553 84.0876C127.947 90.7863 127.414 94.1396 127.111 95.0476C126.673 96.3539 127.047 97.923 128.155 99.4603C128.985 100.633 130.076 101.598 131.342 102.278C132.608 102.958 134.014 103.335 135.451 103.379C137.84 103.379 141.361 102.256 144.212 96.9353C148.928 88.1737 144.212 79.9219 141.655 76.4013C145.885 73.3029 154.957 65.2502 154.113 54.099C155.785 51.1201 161.377 40.0884 158.637 30.3471C157.291 25.568 154.208 21.8164 149.469 19.1561C147.342 15.2372 137.601 0.0398255 114.909 0.0398255L114.94 0Z" fill="black"/>
<path d="M29.8418 120.456C29.8418 120.456 31.4348 126.032 41.7895 123.642V104.128C41.8011 104.029 41.7776 103.93 41.7231 103.847C41.6687 103.764 41.5866 103.702 41.4915 103.674C41.3964 103.645 41.2943 103.651 41.2031 103.691C41.1119 103.73 41.0375 103.8 40.9929 103.889L29.8418 120.456Z" fill="#C0D100"/>
<path d="M29.833 120.456C30.276 121.488 31.0418 122.349 32.0154 122.909C32.9735 123.472 34.0409 123.822 35.1457 123.937C35.692 124.015 36.2427 124.058 36.7945 124.064C37.3441 124.064 37.9017 124.064 38.4513 123.985C39.0008 123.905 39.5584 123.857 40.1 123.762L41.7329 123.419L41.5576 123.642L41.5019 113.503V104.152C41.5073 104.128 41.5073 104.104 41.5019 104.08C41.4908 104.044 41.4663 104.015 41.4336 103.997C41.4009 103.979 41.3626 103.974 41.3267 103.984C41.3267 103.984 41.2709 103.984 41.2311 104.056L41.0558 104.319L40.7054 104.837L39.9885 105.88L38.5707 107.967L35.6874 112.125C33.7757 114.897 31.8402 117.66 29.833 120.456ZM29.833 120.456C31.657 117.645 33.4651 114.809 35.3369 111.981L38.1247 107.728L39.5425 105.609L40.2514 104.55L40.6098 104.024L40.785 103.753C40.8805 103.609 41.0248 103.505 41.1913 103.459C41.3564 103.426 41.5278 103.454 41.674 103.537C41.8203 103.621 41.9316 103.754 41.9878 103.913C41.9979 103.992 41.9979 104.072 41.9878 104.152V113.503L41.932 123.642V123.833H41.7568L40.0921 124.136C39.5345 124.224 38.969 124.264 38.4035 124.327C37.8379 124.391 37.2724 124.327 36.7069 124.367C36.1409 124.345 35.5769 124.286 35.0183 124.192C33.885 124.023 32.7996 123.619 31.8323 123.005C30.916 122.385 30.2169 121.494 29.833 120.456V120.456Z" fill="#C0D100"/>
<path d="M45.7714 119.66L43.3818 107.712C43.3818 107.712 43.3818 101.34 48.9574 102.137C54.533 102.933 52.94 108.349 52.94 108.349L45.7714 119.66Z" fill="#C0D100"/>
<path d="M45.7642 119.66L43.1357 107.76V107.712C43.1388 106.17 43.6202 104.667 44.5137 103.411C45.0096 102.794 45.6654 102.326 46.4094 102.057C46.7755 101.923 47.1592 101.842 47.5484 101.818C47.9321 101.774 48.3196 101.774 48.7034 101.818C49.4724 101.88 50.2245 102.077 50.9256 102.399C51.6389 102.742 52.2469 103.27 52.6859 103.929C53.1033 104.593 53.3471 105.352 53.3948 106.135C53.4558 106.9 53.3885 107.67 53.1957 108.413V108.413C51.969 110.333 50.6946 112.22 49.46 114.084L45.7642 119.66ZM45.7642 119.66C46.9829 117.7 48.1538 115.757 49.2848 113.853C50.4159 111.95 51.5549 110.07 52.7178 108.214V108.278C52.9139 107.607 52.9726 106.904 52.8905 106.21C52.8084 105.516 52.5871 104.846 52.2399 104.239C51.8526 103.672 51.3185 103.22 50.6946 102.933C50.0527 102.652 49.3695 102.477 48.6715 102.415C48.3248 102.376 47.9747 102.376 47.6281 102.415C47.2836 102.437 46.9435 102.504 46.6165 102.614C45.9712 102.849 45.3996 103.25 44.9598 103.777C44.1316 104.942 43.6787 106.331 43.6614 107.76V107.712L45.7642 119.66Z" fill="#C0D100"/>
<path d="M21.0793 108.509C21.0793 108.509 28.0567 110.277 32.1349 108.995C36.213 107.712 25.0618 122.049 25.0618 121.253C25.0618 120.456 20.2828 118.863 21.0793 108.509Z" fill="#C0D100"/>
<path d="M21.0721 108.509C22.7364 108.846 24.4204 109.078 26.114 109.202C27.788 109.363 29.4761 109.296 31.1321 109.003C31.5542 108.915 31.8808 108.795 32.3746 108.684C32.5113 108.656 32.6521 108.656 32.7888 108.684C32.8746 108.707 32.9549 108.747 33.0247 108.801C33.0946 108.856 33.1525 108.925 33.195 109.003C33.2958 109.256 33.3125 109.535 33.2428 109.799C32.9971 110.639 32.6409 111.442 32.1834 112.189C31.3289 113.669 30.3984 115.105 29.3957 116.49C28.3921 117.86 27.3566 119.214 26.2096 120.512C25.9198 120.861 25.6 121.183 25.2538 121.476H25.1821C25.1343 121.476 25.1423 121.532 24.9432 121.476C24.8806 121.454 24.8292 121.408 24.7998 121.348C24.7794 121.303 24.7659 121.255 24.76 121.205V121.205C24.76 121.205 24.76 121.205 24.76 121.157C24.7095 121.082 24.6507 121.012 24.5847 120.95L24.1387 120.512C23.5129 119.909 22.9765 119.22 22.5457 118.465C21.7104 116.95 21.1953 115.28 21.0323 113.559C20.8702 111.878 20.8835 110.186 21.0721 108.509V108.509ZM21.0721 108.509C20.9879 110.201 21.0679 111.898 21.3111 113.574C21.5214 115.237 22.0631 116.84 22.9041 118.29C23.3536 118.991 23.8887 119.633 24.4971 120.201L24.9591 120.647C25.0503 120.73 25.1306 120.824 25.198 120.926C25.2509 120.997 25.2864 121.079 25.3016 121.165V121.245C25.3072 121.211 25.3072 121.176 25.3016 121.141C25.2744 121.097 25.2359 121.062 25.1901 121.038C25.0148 120.998 25.0467 121.038 25.0228 121.038C24.9989 121.038 25.0228 121.038 25.0228 121.038C25.3132 120.772 25.5797 120.482 25.8193 120.17C26.9026 118.887 27.9221 117.525 28.9018 116.187C29.9066 114.831 30.8424 113.424 31.7055 111.973C32.1423 111.275 32.4851 110.523 32.7251 109.735C32.7737 109.588 32.7737 109.429 32.7251 109.281C32.7251 109.241 32.7251 109.233 32.6534 109.218C32.5795 109.206 32.5042 109.206 32.4304 109.218C32.0958 109.281 31.6339 109.425 31.2037 109.496C29.4993 109.731 27.7707 109.731 26.0662 109.496C24.3795 109.29 22.7103 108.96 21.0721 108.509V108.509Z" fill="#C0D100"/>
<path d="M51.5785 115.916C51.7416 115.599 51.9863 115.332 52.2874 115.142C52.5885 114.951 52.935 114.845 53.291 114.833C55.4257 114.777 59.918 115.016 59.3127 118.067C58.5161 122.049 57.3373 125.108 53.1477 125.172C49.3642 125.227 49.7466 119.397 51.5785 115.916Z" fill="#C0D100"/>
<path d="M51.578 115.916C51.731 115.616 51.957 115.358 52.2353 115.167C52.5136 114.977 52.8354 114.859 53.171 114.825C53.8288 114.781 54.4887 114.781 55.1464 114.825C55.8064 114.856 56.4622 114.947 57.1058 115.096C57.7708 115.238 58.3897 115.545 58.9059 115.988C59.1663 116.23 59.3629 116.533 59.4782 116.869C59.5936 117.205 59.6241 117.565 59.567 117.916C59.4798 118.575 59.3549 119.23 59.1927 119.875C58.9099 121.202 58.3479 122.454 57.5439 123.547C57.1054 124.08 56.5635 124.519 55.9509 124.837C55.3222 125.118 54.6526 125.295 53.9675 125.363C53.2746 125.456 52.5694 125.368 51.9205 125.108C51.2929 124.781 50.812 124.229 50.5744 123.563C50.3325 122.936 50.2135 122.268 50.2239 121.595C50.2157 120.933 50.2717 120.272 50.3912 119.62C50.5987 118.333 50.9988 117.084 51.578 115.916V115.916ZM51.578 115.916C51 117.095 50.6052 118.354 50.4071 119.652C50.3142 120.298 50.2929 120.953 50.3434 121.603C50.3679 122.244 50.5139 122.873 50.7735 123.459C51.0109 124.03 51.4545 124.491 52.0161 124.75C52.6053 124.937 53.2306 124.981 53.8401 124.877C54.4611 124.796 55.0658 124.618 55.6323 124.351C56.1772 124.061 56.6569 123.663 57.0421 123.18C57.8119 122.169 58.3552 121.004 58.6351 119.763C58.9218 118.537 59.5909 117.143 58.6351 116.211C58.1715 115.776 57.608 115.461 56.9943 115.295C56.3686 115.106 55.7255 114.981 55.0747 114.921C54.4233 114.862 53.7689 114.844 53.1153 114.865C52.793 114.902 52.4846 115.017 52.2167 115.201C51.9489 115.384 51.7297 115.629 51.578 115.916V115.916Z" fill="#C0D100"/>
<path d="M62.0206 115.032C62.1235 114.456 62.4134 113.93 62.8453 113.536C63.2773 113.141 63.8273 112.9 64.4101 112.85C65.5749 112.744 66.7458 112.971 67.7873 113.503C69.8423 114.562 67.1899 119.875 65.8438 122.264C65.7583 122.415 65.6378 122.543 65.4926 122.638C65.3473 122.732 65.1815 122.79 65.009 122.808C64.8366 122.825 64.6625 122.8 64.5015 122.736C64.3404 122.672 64.1971 122.571 64.0835 122.44C63.186 121.451 62.532 120.267 62.1738 118.98C61.8156 117.694 61.7631 116.342 62.0206 115.032V115.032Z" fill="#C0D100"/>
<path d="M62.0208 115.032C62.123 114.481 62.3914 113.974 62.7901 113.579C63.1888 113.185 63.6986 112.922 64.251 112.826C65.3719 112.661 66.5165 112.801 67.5645 113.232C67.8496 113.335 68.1061 113.504 68.3132 113.726C68.5037 113.956 68.635 114.23 68.6955 114.522C68.7876 115.099 68.7714 115.688 68.6477 116.259C68.4102 117.357 68.0523 118.425 67.5804 119.445C67.1051 120.467 66.5733 121.461 65.9874 122.424C65.7949 122.706 65.4995 122.901 65.1644 122.968C64.8294 123.035 64.4815 122.969 64.1953 122.782C63.9585 122.597 63.7539 122.373 63.5899 122.121C63.4196 121.897 63.2627 121.663 63.12 121.42C61.9773 119.5 61.5857 117.224 62.0208 115.032ZM62.0208 115.032C61.813 116.117 61.828 117.233 62.0649 118.312C62.3018 119.391 62.7556 120.41 63.3987 121.309C63.558 121.532 63.7253 121.747 63.9005 121.954C64.0541 122.155 64.2366 122.332 64.4422 122.479C64.6338 122.587 64.8594 122.618 65.0727 122.564C65.286 122.511 65.4708 122.378 65.5892 122.193C66.091 121.253 66.5928 120.241 67.0388 119.246C67.4992 118.262 67.8698 117.238 68.1459 116.187C68.2913 115.669 68.3399 115.129 68.2893 114.594C68.2676 114.347 68.1795 114.11 68.0344 113.909C67.876 113.718 67.6738 113.567 67.445 113.471C66.4582 112.982 65.3557 112.776 64.259 112.874C63.7048 112.948 63.189 113.198 62.7865 113.586C62.3839 113.975 62.1157 114.481 62.0208 115.032V115.032Z" fill="#C0D100"/>
<path d="M10.7263 94.1715C10.7263 94.1715 16.3019 91.782 14.7088 95.7645C14.7088 95.7645 11.5228 100.544 11.5228 101.34C11.5228 102.137 6.74372 99.7471 7.54023 98.9506C8.69518 97.4215 9.75904 95.8257 10.7263 94.1715V94.1715Z" fill="#C0D100"/>
<path d="M10.7166 94.1714C11.1887 93.9406 11.6789 93.7488 12.1822 93.5979C12.6968 93.427 13.2333 93.3304 13.7752 93.3112C14.0502 93.3123 14.3217 93.3721 14.5717 93.4864C14.7122 93.5579 14.8355 93.6591 14.9331 93.7828C15.0307 93.9066 15.1004 94.05 15.1373 94.2032C15.2193 94.7629 15.142 95.3343 14.9142 95.852V95.852C14.1177 97.0707 13.369 98.2973 12.6601 99.5478C12.4849 99.8585 12.3096 100.177 12.1583 100.496C12.0787 100.647 12.007 100.806 11.9353 100.966L11.8477 101.189C11.8514 101.212 11.8514 101.237 11.8477 101.26C11.8477 101.26 11.8477 101.26 11.8477 101.332C11.8386 101.399 11.817 101.464 11.7839 101.523C11.7274 101.601 11.651 101.662 11.5626 101.7C11.4743 101.738 11.3774 101.751 11.2821 101.738C11.1724 101.734 11.0632 101.72 10.9556 101.698C10.7684 101.653 10.5848 101.595 10.406 101.523C10.0544 101.39 9.71121 101.236 9.37848 101.061C8.6972 100.727 8.07558 100.283 7.53854 99.747C7.37322 99.5742 7.27445 99.3484 7.25977 99.1098C7.26147 99.0355 7.27865 98.9625 7.3102 98.8953C7.34174 98.8281 7.38696 98.7682 7.44296 98.7195L7.61023 98.5283C7.84122 98.2655 8.05628 97.9787 8.27133 97.692C9.07581 96.5689 9.89622 95.3662 10.7166 94.1714ZM10.7166 94.1714C10.0396 95.4538 9.33866 96.7282 8.54215 97.9469C8.33505 98.2495 8.13593 98.5602 7.90494 98.8549C7.8487 98.9331 7.78751 99.0075 7.72174 99.0779C7.66599 99.1496 7.68192 99.1257 7.68192 99.1655C7.71581 99.2824 7.78208 99.3873 7.87308 99.4682C8.37872 99.9441 8.95676 100.337 9.58558 100.631C9.90144 100.787 10.2259 100.926 10.5573 101.045C10.7166 101.101 10.8839 101.149 11.0352 101.189H11.2503C11.322 101.189 11.3379 101.141 11.2503 101.244C11.1627 101.348 11.2503 101.244 11.2503 101.308C11.2503 101.372 11.2503 101.26 11.2503 101.244V101.053L11.3459 100.766C11.4255 100.591 11.4972 100.408 11.5848 100.249C11.7601 99.9222 11.9353 99.6036 12.1264 99.285C12.8672 98.0265 13.6557 96.8078 14.516 95.6131V95.6529C14.7314 95.2243 14.8277 94.7456 14.7948 94.267C14.739 93.8289 14.2691 93.6138 13.7752 93.5899C13.264 93.5704 12.7525 93.6186 12.2539 93.7333C11.7341 93.8522 11.221 93.9984 10.7166 94.1714V94.1714Z" fill="#C0D100"/>
<path d="M20.985 97.4848C20.985 97.4848 24.2666 93.3748 17.8946 95.7644C17.8946 95.7644 13.6571 100.862 13.7846 101.499C13.912 102.136 16.9228 103.889 17.8069 102.614C18.6911 101.34 20.985 97.4848 20.985 97.4848Z" fill="#C0D100"/>
<path d="M17.982 95.9158C17.9952 95.9104 18.0084 95.905 18.0216 95.8996C18.0297 95.889 18.0377 95.8785 18.0457 95.868L17.982 95.9158Z" fill="#C0D100"/>
<path d="M24.9669 97.4849C24.9669 97.4849 29.8416 94.9679 28.2485 99.747C28.2485 99.747 24.266 106.916 23.4695 106.119C22.673 105.323 17.0018 104.391 20.2356 102.073C22.0549 100.815 23.6536 99.2646 24.9669 97.4849V97.4849Z" fill="#C0D100"/>
<path d="M24.9669 97.4849C25.4159 97.224 25.8946 97.0181 26.3927 96.8716C26.9058 96.6901 27.4627 96.6734 27.9857 96.8238C28.2571 96.9373 28.474 97.1513 28.5911 97.4211C28.6881 97.6757 28.7393 97.9453 28.7424 98.2177C28.7424 98.4805 28.6946 98.7513 28.6468 99.0142L28.4557 99.8107C27.6094 101.422 26.6706 102.983 25.644 104.486C25.3811 104.861 25.1103 105.235 24.8076 105.593C24.6528 105.778 24.4852 105.951 24.3058 106.111C24.2068 106.207 24.0941 106.287 23.9713 106.35C23.8909 106.391 23.8051 106.421 23.7164 106.438C23.5869 106.449 23.4576 106.415 23.35 106.342C23.0021 106.089 22.6182 105.891 22.211 105.753C21.7889 105.577 21.3667 105.41 20.9446 105.219C20.5101 105.033 20.0985 104.798 19.7179 104.518C19.5053 104.369 19.3239 104.18 19.1843 103.961C19.0293 103.708 18.9779 103.406 19.0409 103.116C19.2144 102.634 19.5456 102.224 19.9808 101.953C20.3631 101.682 20.7215 101.436 21.08 101.157C22.5175 100.092 23.8225 98.8596 24.9669 97.4849V97.4849ZM24.9669 97.4849C23.9494 98.9889 22.7116 100.331 21.295 101.467C20.6419 102.065 19.702 102.551 19.5188 103.244C19.4312 103.554 19.6781 103.865 20.0127 104.112C20.3653 104.358 20.7447 104.564 21.1437 104.725C21.5499 104.908 21.9402 105.06 22.3942 105.227C22.8465 105.379 23.2754 105.594 23.6686 105.864C23.6686 105.864 23.6686 105.864 23.6129 105.864C23.6365 105.869 23.6609 105.869 23.6846 105.864L23.8996 105.713C24.0581 105.571 24.2071 105.42 24.3457 105.259C24.6285 104.925 24.8944 104.576 25.1422 104.215C26.1856 102.75 27.1096 101.197 28.0415 99.6514V99.6912L28.2645 98.9743C28.3203 98.7274 28.3521 98.4885 28.384 98.2416C28.4246 98.0178 28.3979 97.7871 28.3071 97.5786C28.2164 97.3701 28.0657 97.1933 27.8742 97.0707C27.4076 96.9049 26.9011 96.8882 26.4246 97.0229C25.9237 97.125 25.4352 97.2799 24.9669 97.4849V97.4849Z" fill="#C0D100"/>
<path d="M27.4517 104.526C27.4517 104.526 31.4343 100.544 31.4343 99.747C31.4343 98.9505 37.1373 93.6457 37.8701 103.068C37.8701 103.068 37.0098 106.916 35.4168 106.916C33.8238 106.916 25.0622 106.916 27.4517 104.526Z" fill="#C0D100"/>
<path d="M27.4445 104.526C28.456 103.483 29.4437 102.423 30.3597 101.34C30.8528 100.811 31.218 100.176 31.427 99.4841C31.8322 98.8555 32.3775 98.3294 33.02 97.9468C33.6615 97.5017 34.4423 97.3036 35.2184 97.3893C35.6089 97.469 35.9763 97.6358 36.2935 97.8771C36.6107 98.1184 36.8694 98.4281 37.0504 98.7832C37.7296 100.115 38.1024 101.582 38.1416 103.076V103.164C37.9935 103.767 37.7991 104.359 37.5601 104.932C37.3328 105.516 37.0038 106.056 36.5884 106.525C36.359 106.786 36.0608 106.976 35.7282 107.075C35.4077 107.106 35.0849 107.106 34.7644 107.075C34.159 107.075 33.5457 107.019 32.9404 106.979C31.7246 106.902 30.5145 106.753 29.3163 106.533C28.7152 106.436 28.1324 106.248 27.5878 105.976C27.4455 105.916 27.3201 105.823 27.2227 105.703C27.1254 105.584 27.0593 105.442 27.0303 105.291C27.0696 104.994 27.2171 104.721 27.4445 104.526V104.526ZM27.4445 104.526C27.2172 104.733 27.0752 105.017 27.0462 105.323C27.08 105.468 27.1482 105.603 27.2453 105.717C27.3423 105.831 27.4653 105.919 27.6038 105.976C28.1505 106.233 28.7334 106.405 29.3322 106.485C30.5318 106.665 31.7434 106.752 32.9563 106.748C33.5617 106.748 34.159 106.748 34.7644 106.748C35.0496 106.757 35.335 106.738 35.6167 106.693C35.8639 106.601 36.0796 106.441 36.2379 106.231C36.9015 105.272 37.3623 104.188 37.592 103.044V103.132C37.5329 101.713 37.203 100.318 36.6203 99.0221C36.4767 98.7264 36.2718 98.4647 36.019 98.2546C35.7663 98.0444 35.4716 97.8906 35.1547 97.8035C34.4801 97.6993 33.7905 97.8406 33.2112 98.2017C32.5836 98.5289 32.0389 98.9946 31.6182 99.5637C31.5773 99.6244 31.5477 99.6918 31.5306 99.7629C31.5143 99.8666 31.4792 99.9665 31.427 100.058C31.3429 100.223 31.2443 100.38 31.1323 100.528C30.9093 100.814 30.6783 101.101 30.4314 101.372C29.4915 102.471 28.4799 103.546 27.4445 104.526Z" fill="#C0D100"/>
<path d="M5.18164 102.296C5.18164 102.296 8.94914 101.308 7.44373 105.705L6.48792 109.305C6.48792 109.305 5.2135 109.624 5.18164 102.296Z" fill="#C0D100"/>
<path d="M5.18194 102.296C5.5509 102.171 5.93998 102.117 6.32891 102.137C6.74716 102.135 7.15184 102.285 7.46793 102.559C7.76826 102.866 7.95143 103.269 7.98566 103.698C7.99759 103.902 7.99759 104.107 7.98566 104.311L7.90601 104.908C7.52368 106.438 7.17322 107.895 6.75903 109.385L6.70328 109.576H6.54397C6.46359 109.591 6.38085 109.587 6.30213 109.565C6.22341 109.543 6.15082 109.503 6.08996 109.449C6.00643 109.387 5.93376 109.311 5.8749 109.226C5.77029 109.083 5.68462 108.928 5.62002 108.764C5.49805 108.462 5.40472 108.15 5.34124 107.832C5.21943 107.22 5.14487 106.599 5.11822 105.976C5.11822 105.362 5.0545 104.741 5.07043 104.128C5.08636 103.515 5.14211 102.869 5.18194 102.296ZM5.18194 102.296L5.34921 104.136C5.41293 104.741 5.46868 105.347 5.5563 105.952C5.64392 106.557 5.74746 107.147 5.88287 107.728C5.95301 108.001 6.04627 108.268 6.16165 108.525C6.20971 108.645 6.27116 108.76 6.34485 108.867L6.44839 108.971C6.44839 108.971 6.54397 108.971 6.44839 108.971L6.2413 109.178C6.62362 107.696 7.03781 106.175 7.47589 104.749C7.59869 104.421 7.64179 104.069 7.60163 103.722C7.56146 103.374 7.43919 103.041 7.2449 102.75C6.95883 102.521 6.62401 102.361 6.26631 102.283C5.90861 102.204 5.5376 102.208 5.18194 102.296V102.296Z" fill="#C0D100"/>
<path d="M10.7259 104.526C10.7259 104.526 13.4659 102.71 12.4941 113.973C12.4941 113.973 10.3435 114.817 9.30807 110.866C8.2726 106.916 9.92935 102.933 10.7259 104.526Z" fill="#C0D100"/>
<path d="M10.7177 104.526C10.8142 104.466 10.9216 104.426 11.0338 104.408C11.146 104.391 11.2605 104.395 11.3708 104.423C11.4819 104.457 11.5848 104.514 11.6735 104.59C11.7706 104.653 11.8545 104.734 11.9204 104.829C12.0551 105.011 12.1724 105.206 12.2709 105.41C12.3426 105.625 12.4302 105.832 12.4939 106.047C12.7132 106.914 12.8466 107.799 12.8922 108.692C12.94 109.578 12.94 110.466 12.8922 111.352C12.8922 112.236 12.7966 113.112 12.7567 113.997V114.188L12.5895 114.244C12.2926 114.339 11.9777 114.364 11.6695 114.317C11.3613 114.27 11.0682 114.152 10.8133 113.973C10.3433 113.637 9.96312 113.191 9.70611 112.674C9.23123 111.692 8.93715 110.631 8.83792 109.544C8.741 108.479 8.80274 107.405 9.02111 106.358C9.1203 105.824 9.2946 105.306 9.53885 104.821C9.65395 104.57 9.83237 104.353 10.0566 104.192C10.1187 104.153 10.1904 104.132 10.2637 104.132C10.3369 104.132 10.4087 104.153 10.4708 104.192C10.5812 104.279 10.6664 104.395 10.7177 104.526V104.526ZM10.7177 104.526C10.6574 104.411 10.5699 104.313 10.4628 104.239C10.4125 104.208 10.3546 104.192 10.2955 104.192C10.2365 104.192 10.1785 104.208 10.1283 104.239C9.94293 104.411 9.80097 104.624 9.71408 104.861C9.52714 105.345 9.39879 105.851 9.33175 106.366C9.18045 107.391 9.18045 108.432 9.33175 109.456C9.45696 110.473 9.75319 111.462 10.2079 112.38C10.4214 112.816 10.7386 113.194 11.1319 113.479C11.3114 113.602 11.515 113.685 11.7292 113.724C11.9434 113.762 12.1633 113.755 12.3744 113.702L12.1912 113.949C12.2549 113.073 12.3585 112.204 12.3824 111.328C12.4063 110.452 12.4461 109.584 12.4541 108.708C12.4557 107.837 12.381 106.969 12.2311 106.111C12.1833 105.904 12.1195 105.697 12.0718 105.49C11.9966 105.291 11.9033 105.099 11.793 104.916C11.687 104.736 11.5287 104.591 11.339 104.502C11.2391 104.464 11.1326 104.447 11.0259 104.451C10.9192 104.455 10.8143 104.481 10.7177 104.526V104.526Z" fill="#C0D100"/>
<path d="M14.9861 105.625C14.9861 105.625 18.1721 106.119 19.2395 108.509C20.3068 110.898 19.2395 116.235 19.2395 116.235C19.2395 116.235 15.2569 118.736 14.9861 112.826C14.7153 106.916 14.9861 105.625 14.9861 105.625Z" fill="#C0D100"/>
<path d="M14.9872 105.625C16.0936 105.763 17.1493 106.171 18.0617 106.812C18.5216 107.15 18.9134 107.571 19.2166 108.055C19.4982 108.549 19.6922 109.088 19.7901 109.648C19.9675 110.748 20.0103 111.866 19.9176 112.977C19.8535 114.083 19.7259 115.184 19.5352 116.275V116.402L19.4237 116.466C18.8713 116.807 18.2406 117.002 17.5917 117.031C17.2527 117.039 16.9161 116.972 16.6063 116.834C16.2964 116.696 16.0209 116.492 15.7996 116.235C15.5913 115.993 15.4147 115.725 15.2739 115.438C15.1582 115.148 15.065 114.85 14.9951 114.546C14.8621 113.949 14.7874 113.341 14.7721 112.73C14.7721 111.543 14.7323 110.341 14.7721 109.17C14.7608 107.985 14.8326 106.8 14.9872 105.625V105.625ZM14.9872 105.625C14.9194 106.808 14.9194 107.995 14.9872 109.178C15.0349 110.364 15.1066 111.567 15.1942 112.73C15.2352 113.304 15.3177 113.873 15.4412 114.435C15.5134 114.706 15.6039 114.972 15.712 115.231C15.823 115.475 15.9708 115.701 16.1501 115.9C16.3215 116.091 16.5336 116.241 16.7707 116.339C17.0078 116.437 17.2639 116.48 17.5201 116.466C18.0624 116.426 18.5883 116.263 19.0573 115.988L18.9219 116.179C19.1238 115.126 19.2673 114.062 19.352 112.993C19.4438 111.932 19.4304 110.865 19.3122 109.807C19.2666 109.282 19.1146 108.772 18.8654 108.308C18.6161 107.843 18.2749 107.435 17.8626 107.107C17.0273 106.404 16.0446 105.897 14.9872 105.625Z" fill="#C0D100"/>
<path d="M54.7961 111.193C54.7961 111.193 57.9821 113.686 60.2362 109.106C62.4904 104.526 61.67 100.496 56.5086 103.706C56.5325 103.706 54.2704 105.936 54.7961 111.193Z" fill="#C0D100"/>
<path d="M54.796 111.193C55.418 111.596 56.1506 111.794 56.8908 111.759C57.6072 111.693 58.2767 111.374 58.7786 110.858C59.7273 109.75 60.411 108.44 60.7778 107.027C60.9955 106.341 61.1135 105.628 61.1283 104.909C61.1574 104.582 61.1148 104.253 61.0033 103.945C60.8919 103.637 60.7143 103.357 60.4831 103.124C60.2006 102.955 59.8815 102.857 59.5529 102.838C59.2243 102.818 58.8958 102.878 58.5954 103.013C58.254 103.117 57.9211 103.248 57.5997 103.403C57.2732 103.562 56.9625 103.754 56.6439 103.929C56.2346 104.407 55.899 104.944 55.6483 105.522C55.3888 106.11 55.1913 106.724 55.0589 107.354C54.9187 107.989 54.8255 108.633 54.7801 109.281C54.7721 109.919 54.7801 110.524 54.796 111.193ZM54.796 111.193L54.6765 110.213C54.6765 109.887 54.6765 109.552 54.6288 109.226C54.6167 108.562 54.6647 107.898 54.7721 107.242C54.8771 106.578 55.0506 105.927 55.2899 105.299C55.5306 104.652 55.8809 104.051 56.3253 103.523V103.523C56.6599 103.331 56.9864 103.132 57.321 102.957C57.6674 102.783 58.0269 102.637 58.3962 102.519C58.7794 102.39 59.1791 102.318 59.5831 102.304C59.7947 102.317 60.005 102.347 60.2123 102.392C60.4241 102.456 60.6234 102.555 60.8017 102.686L61.0566 102.909C61.1248 102.992 61.1861 103.08 61.2398 103.172C61.3595 103.35 61.4484 103.546 61.5026 103.754C61.6194 104.138 61.6705 104.539 61.654 104.94C61.6303 105.716 61.4907 106.484 61.2398 107.218C60.8317 108.701 60.0532 110.055 58.9777 111.153L58.5157 111.512C58.3485 111.615 58.1653 111.695 57.998 111.79C57.6317 111.929 57.2428 112 56.851 111.997C56.0959 111.964 55.3732 111.681 54.796 111.193Z" fill="#C0D100"/>
<path d="M63.2954 110.102C63.2954 110.102 66.4815 111.296 67.6922 109.106C68.9029 106.916 68.4887 104 65.4938 103.068C62.4989 102.136 61.7024 111.695 63.2954 110.102Z" fill="#C0D100"/>
<path d="M63.2863 110.102C64.1436 110.35 65.0485 110.385 65.9227 110.205C66.3348 110.11 66.7176 109.916 67.0378 109.64C67.324 109.331 67.5459 108.968 67.691 108.572C68.0098 107.777 68.1088 106.91 67.9777 106.063C67.8276 105.238 67.3691 104.5 66.6953 104C66.3539 103.751 65.9783 103.553 65.5802 103.411C65.4219 103.319 65.2418 103.27 65.0585 103.27C64.8752 103.27 64.6951 103.319 64.5368 103.411C63.8938 103.961 63.4351 104.695 63.2225 105.514C62.9301 106.351 62.7402 107.22 62.657 108.103C62.5975 108.543 62.5815 108.989 62.6092 109.433C62.6218 109.65 62.673 109.863 62.7606 110.062C62.781 110.108 62.8146 110.147 62.8571 110.174C62.8996 110.201 62.9492 110.214 62.9995 110.213C63.1033 110.202 63.2022 110.164 63.2863 110.102V110.102ZM63.2863 110.102C63.2108 110.19 63.1151 110.258 63.0075 110.301C62.9455 110.309 62.8825 110.299 62.826 110.272C62.7695 110.245 62.7219 110.203 62.6889 110.15C62.5665 109.951 62.4878 109.728 62.4579 109.496C62.3786 109.044 62.3465 108.585 62.3623 108.126C62.3918 107.207 62.5336 106.295 62.7845 105.41C62.9014 104.959 63.0725 104.523 63.2942 104.112C63.5131 103.665 63.8387 103.28 64.2421 102.989C64.4663 102.842 64.7241 102.754 64.9914 102.733C65.2587 102.712 65.527 102.759 65.7714 102.869C66.2294 103.021 66.6617 103.241 67.0538 103.523C67.8115 104.123 68.3195 104.983 68.4795 105.936C68.6281 106.882 68.4894 107.85 68.0813 108.716C67.9004 109.157 67.6291 109.556 67.2847 109.887C66.9055 110.186 66.4558 110.384 65.9785 110.46C65.0652 110.579 64.1366 110.456 63.2863 110.102V110.102Z" fill="#C0D100"/>
<path d="M71.8496 103.005C71.8496 103.005 75.2746 101.412 74.8604 104.956C74.4463 108.501 71.2284 110.755 70.8779 110.428C70.5274 110.102 69.2769 103.077 71.8496 103.005Z" fill="#C0D100"/>
<path d="M71.841 103.005C72.2196 102.802 72.6284 102.662 73.0517 102.591C73.4925 102.497 73.9524 102.562 74.35 102.774C74.5412 102.907 74.7019 103.08 74.8213 103.281C74.9408 103.481 75.0163 103.705 75.043 103.937C75.1027 104.375 75.1027 104.82 75.043 105.259C74.7816 106.994 73.9391 108.589 72.6534 109.783C72.3253 110.091 71.9616 110.358 71.5702 110.58C71.4609 110.638 71.3462 110.686 71.2277 110.723C71.1527 110.746 71.0751 110.759 70.9967 110.763H70.8215C70.7481 110.737 70.6841 110.69 70.6383 110.627C70.5607 110.511 70.504 110.381 70.471 110.245C70.4344 110.138 70.4051 110.029 70.3834 109.918C70.1881 109.085 70.0787 108.233 70.0568 107.378C70.0154 106.518 70.0823 105.656 70.2559 104.813C70.3454 104.387 70.5186 103.984 70.7657 103.626C70.8782 103.44 71.0357 103.286 71.2237 103.177C71.4116 103.069 71.624 103.009 71.841 103.005V103.005ZM71.841 103.005C71.637 103.026 71.4416 103.098 71.272 103.213C71.1025 103.328 70.9641 103.484 70.8692 103.666C70.6741 104.023 70.5522 104.416 70.5108 104.821C70.4112 105.643 70.4112 106.475 70.5108 107.298C70.5866 108.121 70.7196 108.938 70.9091 109.743C70.9091 109.839 70.9569 109.934 70.9887 110.03C71.0115 110.098 71.0381 110.164 71.0684 110.229C70.933 110.141 70.9887 110.229 71.0684 110.157C71.1521 110.133 71.2324 110.098 71.3073 110.054C71.6522 109.856 71.9707 109.615 72.2552 109.337C73.4873 108.255 74.3273 106.796 74.6447 105.187C74.7721 104.391 74.8598 103.483 74.2465 103.013C73.9151 102.795 73.5171 102.702 73.1234 102.75C72.6861 102.774 72.2544 102.86 71.841 103.005V103.005Z" fill="#C0D100"/>
<path d="M78.7312 102.232C78.7312 102.232 78.2374 107.712 78.7312 108.509C79.225 109.305 83.4625 107.895 81.742 102.232C81.742 102.232 79.0339 100.727 78.7312 102.232Z" fill="#C0D100"/>
<path d="M78.7321 102.232C78.6233 103.464 78.586 104.7 78.6206 105.936C78.6329 106.549 78.6781 107.16 78.756 107.768C78.756 108.047 78.8914 108.413 78.9791 108.421C79.2155 108.475 79.4629 108.456 79.688 108.365C80.2154 108.146 80.6808 107.8 81.0433 107.358C81.4058 106.917 81.6542 106.393 81.7668 105.832C82.0212 104.649 81.9801 103.42 81.6474 102.256L81.6952 102.312C81.2021 102.007 80.6647 101.782 80.1021 101.643C79.8253 101.571 79.5347 101.571 79.2578 101.643C79.124 101.682 79.0038 101.758 78.9109 101.863C78.8181 101.967 78.7561 102.095 78.7321 102.232V102.232ZM78.7321 102.232C78.7565 102.09 78.819 101.957 78.913 101.848C79.007 101.738 79.1289 101.657 79.2658 101.611C79.5512 101.543 79.8486 101.543 80.134 101.611C80.7048 101.723 81.2589 101.908 81.7828 102.161V102.2C82.2531 103.391 82.4094 104.683 82.2368 105.952C82.1403 106.618 81.8616 107.244 81.4315 107.761C81.0013 108.279 80.4365 108.667 79.7995 108.883C79.4468 109.025 79.053 109.025 78.7003 108.883C78.5928 108.822 78.5087 108.727 78.4613 108.612C78.4225 108.525 78.3931 108.435 78.3737 108.342C78.3438 108.178 78.3252 108.013 78.318 107.848C78.2859 107.224 78.2859 106.599 78.318 105.976L78.7321 102.232Z" fill="#C0D100"/>
<path d="M69.6982 112.826C69.6982 112.826 72.948 110.818 74.8915 111.655C76.835 112.491 73.4578 122.806 71.5621 119.62C70.4 117.539 69.7604 115.208 69.6982 112.826V112.826Z" fill="#C0D100"/>
<path d="M69.6992 112.826C70.518 112.267 71.4107 111.824 72.3516 111.512C72.8342 111.361 73.3355 111.277 73.8411 111.265C74.1084 111.26 74.3754 111.284 74.6376 111.336C74.765 111.384 74.8845 111.408 75.0199 111.464C75.1635 111.535 75.2889 111.639 75.3863 111.767C75.6649 112.249 75.7899 112.804 75.7447 113.36C75.7385 113.865 75.6879 114.369 75.5934 114.865C75.4232 115.847 75.1564 116.81 74.7969 117.74C74.6082 118.209 74.3818 118.662 74.1198 119.094C73.8554 119.552 73.5036 119.952 73.0844 120.273C72.9581 120.371 72.8129 120.441 72.6579 120.48C72.5029 120.518 72.3416 120.524 72.1843 120.496C71.8831 120.418 71.6235 120.227 71.4595 119.963C71.187 119.535 70.9525 119.085 70.7586 118.616C69.9917 116.785 69.6303 114.81 69.6992 112.826ZM69.6992 112.826C69.7738 113.801 69.9418 114.766 70.201 115.709C70.4306 116.649 70.759 117.562 71.1807 118.433C71.3905 118.856 71.6218 119.268 71.8737 119.668C71.9107 119.75 71.9669 119.822 72.0377 119.877C72.1084 119.933 72.1916 119.97 72.28 119.987C72.3684 120.003 72.4595 119.998 72.5455 119.972C72.6314 119.945 72.7098 119.898 72.7737 119.835C73.4278 119.176 73.9211 118.374 74.2154 117.493C74.5764 116.605 74.8433 115.681 75.0119 114.737C75.1108 114.274 75.1668 113.802 75.1792 113.328C75.216 112.886 75.1421 112.443 74.9641 112.037C74.9205 111.968 74.8603 111.91 74.7889 111.87C74.6933 111.822 74.5818 111.79 74.4783 111.751C74.258 111.687 74.0304 111.652 73.8012 111.647C73.3267 111.635 72.8525 111.686 72.3914 111.798C71.4568 112.034 70.5531 112.379 69.6992 112.826V112.826Z" fill="#C0D100"/>
<path d="M78.5088 111.193C78.5088 111.193 82.2843 109.098 82.7462 111.193C83.2082 113.288 80.978 120.026 78.5088 115.861V111.193Z" fill="#C0D100"/>
<path d="M78.5084 111.193C79.0113 110.875 79.545 110.608 80.1014 110.396C80.6713 110.154 81.293 110.058 81.9095 110.118C82.0808 110.146 82.2447 110.208 82.3912 110.301C82.5377 110.394 82.6638 110.516 82.7618 110.659C82.9414 110.941 83.0431 111.265 83.0565 111.599C83.0919 112.208 83.0464 112.818 82.9211 113.415C82.7221 114.628 82.23 115.773 81.4873 116.753C81.27 117.011 80.9979 117.218 80.6908 117.358C80.5228 117.433 80.341 117.471 80.1572 117.471C79.9733 117.471 79.7915 117.433 79.6235 117.358C79.0558 117.051 78.6009 116.571 78.3252 115.988V115.924V115.868C78.3252 114.267 78.3969 112.69 78.5084 111.193ZM78.5084 111.193C78.6199 112.786 78.6916 114.379 78.7394 115.86V115.741C78.9929 116.21 79.3776 116.595 79.8465 116.848C80.2766 117.031 80.7147 116.776 81.0652 116.37C81.7218 115.455 82.1728 114.409 82.3874 113.304C82.5172 112.753 82.5814 112.189 82.5786 111.623C82.6149 111.378 82.5606 111.127 82.4257 110.919C82.2908 110.711 82.0846 110.559 81.8458 110.492C81.2916 110.406 80.7251 110.447 80.189 110.611C79.6148 110.762 79.0529 110.956 78.5084 111.193V111.193Z" fill="#C0D100"/>
<path d="M30.3346 73.9002C29.8921 74.7183 29.6211 75.6181 29.5381 76.5446C29.1797 80.0492 29.5381 87.0346 38.6024 84.6132C50.5501 81.4272 54.7158 70.3557 54.7158 70.3557C54.7158 70.3557 60.7375 58.2885 39.4308 56.5522C38.2356 56.4477 37.0359 56.6933 35.978 57.2591C34.9201 57.8248 34.0496 58.6862 33.4729 59.7382C32.6764 61.3312 32.0471 63.6172 32.1746 67.0422C32.1995 67.8027 32.1245 68.5633 31.9516 69.3043C31.6149 70.9001 31.0714 72.4451 30.3346 73.9002V73.9002Z" fill="black" stroke="black" stroke-width="0.5" stroke-miterlimit="10" stroke-linecap="round"/>
<path d="M40.6747 61.1162C39.5994 62.1278 38.1019 64.589 37.8948 70.7699C37.8692 71.5276 37.6349 72.2635 37.2178 72.8966C36.254 74.3542 34.6291 77.4208 35.5212 80.6387C35.5542 80.7485 35.5616 80.8645 35.5426 80.9776C35.5237 81.0908 35.4791 81.1981 35.4121 81.2912C35.3451 81.3843 35.2576 81.4608 35.1564 81.5148C35.0552 81.5688 34.9429 81.5988 34.8283 81.6024C33.2353 81.6024 30.6068 80.5829 34.6212 72.2434C35.0191 71.4233 35.2338 70.5264 35.2504 69.615C35.2504 66.3811 35.8558 58.5913 40.3561 59.8338C40.4787 59.8785 40.5885 59.9525 40.6758 60.0496C40.763 60.1466 40.8251 60.2636 40.8566 60.3902C40.8881 60.5169 40.8879 60.6493 40.8562 60.7759C40.8245 60.9025 40.7621 61.0194 40.6747 61.1162Z" fill="#C0D100"/>
<path d="M42.4742 49.1367C42.4742 49.1367 59.7107 52.3227 61.3037 38.782C62.7693 26.2848 63.5658 18.5586 53.0041 19.3312C51.6808 19.4255 50.3996 19.8365 49.2685 20.5296C48.1373 21.2227 47.1894 22.1776 46.5045 23.3138C45.2055 25.6113 44.2298 28.0773 43.6052 30.6417C43.185 32.2671 42.4339 33.7883 41.3989 35.1101C38.3323 38.9015 32.9161 47.2808 42.4742 49.1367Z" fill="black" stroke="black" stroke-width="0.5" stroke-miterlimit="10" stroke-linecap="round"/>
<path d="M44.8003 46.9942C44.954 46.9546 45.0864 46.8569 45.1695 46.7217C45.2527 46.5866 45.2803 46.4244 45.2464 46.2694C44.9039 44.756 44.0596 40.3911 45.3738 38.9654C46.9669 37.229 53.3389 24.8671 52.9407 23.4812C52.5823 22.2466 48.7351 24.0148 47.3651 29.5108C46.7772 31.9694 45.9309 34.359 44.8402 36.6395C43.7888 38.7423 42.4984 40.8372 41.3992 41.2035C39.1451 41.9523 41.8214 47.6314 44.8003 46.9942Z" fill="#C0D100"/>
<path d="M67.6829 45.1859C67.6829 45.1859 67.6829 56.337 78.8341 55.5405C78.8341 55.5405 72.462 70.6742 78.8341 70.6742C85.2062 70.6742 85.6522 70.2521 86.6239 56.5362C86.6239 56.5362 88.217 52.8165 89.7224 59.8258C89.8331 60.4258 90.1641 60.9627 90.6505 61.3311C91.1368 61.6996 91.7433 61.8729 92.3509 61.817C93.5377 61.6577 94.7882 60.5267 95.067 56.6875C95.0707 56.6219 95.0909 56.5584 95.1257 56.5027C95.1605 56.447 95.2088 56.401 95.2661 56.3689C96.198 55.899 100.236 52.8881 99.1053 36.5278C98.8754 32.8107 97.4283 29.2726 94.9873 26.4599C91.8013 22.796 86.3372 19.363 78.2606 22.4216C77.1089 22.8516 76.1109 23.6139 75.3931 24.612C74.1028 26.4519 73.1629 28.9689 80.8413 25.8068C80.9143 25.7733 80.9962 25.7647 81.0746 25.7823C81.1529 25.8 81.2233 25.8429 81.2749 25.9044C81.3265 25.966 81.3564 26.0427 81.3601 26.123C81.3638 26.2032 81.341 26.2824 81.2953 26.3484C78.9058 29.9247 71.4823 41.8405 75.2259 49.9411C75.2628 50.0366 75.2742 50.1402 75.2589 50.2416C75.2436 50.3429 75.2021 50.4385 75.1386 50.5189C75.0751 50.5993 74.9917 50.6618 74.8966 50.7001C74.8016 50.7385 74.6982 50.7514 74.5966 50.7376C72.5974 50.411 68.7662 48.2525 71.9522 35.7154C72.0744 35.2214 72.0835 34.7063 71.9787 34.2084C71.8738 33.7105 71.6579 33.2427 71.3469 32.84C69.8096 30.8885 67.0935 29.4707 67.6829 45.1859Z" fill="black" stroke="black" stroke-width="0.5" stroke-miterlimit="10" stroke-linecap="round"/>
<path d="M74.853 14.9185C78.2017 14.0739 81.6354 13.6117 85.0882 13.5406C88.5957 13.4192 92.1011 13.8356 95.4827 14.7752C98.9788 15.7158 102.157 17.5814 104.682 20.1755C107.163 22.8751 108.821 26.2271 109.461 29.8372V29.9168V30.0124C109.605 34.2578 109.78 38.5032 109.876 42.7566C109.971 47.01 110.099 51.2474 110.162 55.5008V55.684C110.003 56.9107 110.003 58.153 110.162 59.3798C110.291 60.5841 110.651 61.7523 111.222 62.8207C111.784 63.8517 112.648 64.6857 113.699 65.2102C114.816 65.7251 116.029 65.9967 117.259 66.0067C120.024 66.0968 122.738 66.7699 125.224 67.9821C127.674 69.1554 129.805 70.9011 131.437 73.0718C130.531 72.1022 129.506 71.2511 128.387 70.5389C127.289 69.8155 126.116 69.212 124.89 68.7388C122.464 67.7987 119.876 67.3493 117.275 67.4166C115.829 67.4879 114.384 67.2489 113.038 66.7156C111.65 66.0984 110.482 65.0768 109.684 63.7845C108.926 62.5304 108.423 61.1392 108.203 59.6904C107.979 58.2704 107.939 56.8275 108.083 55.3972V55.5804C107.876 51.335 107.717 47.0896 107.574 42.8362C107.43 38.5829 107.311 34.3375 107.191 30.0921V30.2673C106.672 27.0692 105.296 24.0717 103.209 21.5933C102.116 20.3938 100.868 19.3464 99.4971 18.4789C98.098 17.6052 96.6009 16.8994 95.0366 16.3762C91.8375 15.31 88.505 14.6961 85.136 14.5521C81.7043 14.3652 78.2627 14.4878 74.853 14.9185V14.9185Z" fill="black"/>
</svg>
