<svg width="36" height="36" viewBox="0 0 36 36" fill="none" xmlns="http://www.w3.org/2000/svg">
<path d="M18.383 0.308442C8.72009 0.341351 0.909748 8.20508 0.942657 17.8679C0.975566 27.5308 8.83929 35.3411 18.5022 35.3082C28.165 35.2753 35.9754 27.4116 35.9425 17.7487C35.9095 8.08588 28.0502 0.275518 18.383 0.308442ZM9.57794 18.4262L9.65191 18.3079L14.182 11.1699C14.1972 11.1464 14.2184 11.1275 14.2434 11.115C14.2684 11.1025 14.2963 11.097 14.3242 11.099C14.352 11.101 14.3789 11.1104 14.4018 11.1263C14.4248 11.1422 14.4431 11.164 14.4548 11.1894C15.2189 12.8916 15.8853 15.0097 15.5806 16.3306C15.4541 16.8735 15.0964 17.6097 14.6919 18.2907C14.64 18.3903 14.5834 18.4873 14.5222 18.5815C14.5076 18.6025 14.4879 18.6195 14.4651 18.6311C14.4422 18.6426 14.4168 18.6483 14.3912 18.6476L9.71438 18.6635C9.68646 18.664 9.65893 18.657 9.63469 18.6431C9.61046 18.6292 9.59044 18.6091 9.57674 18.5847C9.56305 18.5604 9.5562 18.5328 9.55693 18.5049C9.55765 18.477 9.56592 18.4498 9.58086 18.4262L9.57794 18.4262ZM29.8774 20.8071C29.8779 20.8383 29.8692 20.8688 29.8524 20.8951C29.8357 20.9213 29.8116 20.9421 29.7831 20.9547C29.4293 21.1061 28.2251 21.6673 27.7258 22.3647C26.4515 24.1511 25.4831 26.7036 23.2956 26.711L14.1752 26.7421C13.4052 26.7436 12.6424 26.5933 11.9305 26.2998C11.2185 26.0064 10.5714 25.5755 10.026 25.0318C9.48068 24.4881 9.04781 23.8423 8.75216 23.1313C8.45652 22.4203 8.30388 21.6579 8.30298 20.8879L8.30263 20.7829C8.30234 20.6983 8.3721 20.6281 8.4596 20.6278L13.5419 20.6105C13.6439 20.6101 13.7172 20.7017 13.7102 20.8024C13.6734 21.1321 13.7373 21.4717 13.8958 21.7788C14.1983 22.3903 14.8267 22.7703 15.5019 22.768L18.019 22.7594L18.0123 20.795L15.5215 20.8035C15.4923 20.8033 15.4637 20.7951 15.4388 20.7799C15.4139 20.7646 15.3937 20.7429 15.3802 20.717C15.3668 20.6911 15.3607 20.662 15.3626 20.6328C15.3644 20.6037 15.3742 20.5756 15.3908 20.5517L15.4823 20.4201C15.7145 20.0824 16.0496 19.5636 16.383 18.9704C16.6091 18.57 16.8293 18.1434 17.0058 17.7141C17.0405 17.6381 17.0679 17.5578 17.0998 17.4804C17.1474 17.3432 17.1966 17.2147 17.2311 17.0877C17.2651 16.98 17.2964 16.8714 17.3248 16.7621C17.4067 16.3973 17.4404 16.0122 17.439 15.614C17.4385 15.4565 17.4321 15.2918 17.417 15.1372C17.4091 14.9666 17.3867 14.7946 17.3657 14.6241C17.3488 14.4715 17.325 14.3197 17.2941 14.1693C17.2541 13.9403 17.2056 13.7128 17.1489 13.4873L17.1282 13.3999C17.0839 13.2425 17.0454 13.0939 16.9953 12.938C16.8548 12.4593 16.6936 11.9869 16.5122 11.5222C16.4489 11.3473 16.3792 11.1749 16.3033 11.0052C16.1974 10.7459 16.0887 10.5115 15.9903 10.2916C15.9413 10.1975 15.8953 10.1018 15.8522 10.0048C15.8044 9.90019 15.754 9.79679 15.7009 9.69471C15.6657 9.61754 15.6231 9.54331 15.5952 9.47341L15.2856 8.90862C15.243 8.83148 15.3127 8.73645 15.3973 8.76095L17.3241 9.27502L17.3387 9.27497L17.5912 9.34702L17.8715 9.42482L17.9737 9.45218L17.9698 8.31031C17.9679 7.75761 18.4068 7.3084 18.9566 7.30653C19.0864 7.30574 19.215 7.33122 19.3348 7.38144C19.4545 7.43165 19.5628 7.50557 19.6532 7.59874C19.84 7.78591 19.9457 8.03912 19.9473 8.30358L19.9531 10.0011L20.1589 10.0572C20.1735 10.0645 20.191 10.0717 20.2042 10.0819C20.2539 10.1167 20.327 10.1719 20.4191 10.2416C20.4922 10.2967 20.5697 10.3665 20.6604 10.4405C20.9492 10.6742 21.2292 10.9184 21.5 11.1727C21.813 11.4618 22.1642 11.8004 22.5009 12.177C22.5961 12.2846 22.6868 12.3893 22.782 12.5056C22.8728 12.6205 22.9753 12.7325 23.0603 12.843C23.176 12.9943 23.2946 13.1514 23.4046 13.3143C23.453 13.3915 23.513 13.4715 23.5585 13.5486C23.6992 13.7552 23.8195 13.9677 23.9354 14.1817C23.9854 14.2792 24.0339 14.387 24.0765 14.4918C24.2073 14.7787 24.3103 15.0685 24.3741 15.3629C24.395 15.4254 24.4094 15.4898 24.417 15.5553L24.417 15.5699C24.4377 15.6529 24.4454 15.7448 24.453 15.8381C24.4955 16.269 24.4442 16.704 24.3027 17.1132C24.2579 17.2358 24.2161 17.3614 24.1611 17.4841C24.0525 17.7324 23.928 17.9851 23.7786 18.2175C23.7293 18.3051 23.6698 18.3958 23.6147 18.4834C23.5523 18.5755 23.4855 18.6633 23.4304 18.7466C23.3505 18.8573 23.2668 18.9651 23.1792 19.0697C23.1022 19.175 23.0253 19.2802 22.9381 19.3753C22.8205 19.5186 22.7057 19.6532 22.5822 19.782C22.5125 19.8668 22.437 19.9545 22.3556 20.0307C22.28 20.1184 22.1986 20.196 22.1289 20.2662C22.0068 20.3891 21.9108 20.4813 21.8265 20.5618L21.6274 20.7404C21.5996 20.7684 21.5619 20.7843 21.5225 20.7845L19.9898 20.7898L19.9965 22.7527L21.9244 22.7461C22.3546 22.7446 22.7639 22.5916 23.0954 22.3075C23.2074 22.2094 23.6988 21.7805 24.2814 21.1339C24.3004 21.1119 24.3259 21.0965 24.3542 21.0899L29.6718 19.5303C29.6952 19.5235 29.7198 19.5221 29.7437 19.5264C29.7677 19.5307 29.7903 19.5404 29.8099 19.5549C29.8294 19.5694 29.8453 19.5882 29.8564 19.6099C29.8674 19.6316 29.8733 19.6555 29.8736 19.6798L29.8774 20.8071Z" fill="#C0D100"/>
</svg>
