<svg width="36" height="36" viewBox="0 0 36 36" fill="none" xmlns="http://www.w3.org/2000/svg">
<path fill-rule="evenodd" clip-rule="evenodd" d="M35.9425 17.8678C35.9754 27.5321 28.1665 35.3943 18.5022 35.4273C8.83784 35.4602 0.975571 27.6513 0.942657 17.987C0.909743 8.32264 8.71864 0.460375 18.383 0.42746C28.0473 0.394546 35.9095 8.20344 35.9425 17.8678ZM19.054 13.3446C17.3546 14.0577 13.9573 15.5349 8.86365 17.7748C8.03644 18.1072 7.60296 18.4309 7.56466 18.7461C7.49939 19.2801 8.16802 19.4878 9.07606 19.7691C9.20016 19.808 9.32862 19.847 9.46002 19.8903C10.355 20.1774 11.5578 20.5131 12.182 20.5241C12.7493 20.5338 13.3814 20.2984 14.0783 19.8177C18.8332 16.5829 21.2878 14.9485 21.4423 14.913C21.5516 14.8878 21.7032 14.8552 21.8055 14.9467C21.9079 15.0368 21.8983 15.2089 21.8883 15.2556C21.8221 15.5373 19.2142 17.9801 17.8622 19.2448C17.4407 19.6385 17.1427 19.918 17.0816 19.9824C16.945 20.1243 16.8055 20.2604 16.6718 20.3907C15.8432 21.1927 15.224 21.7956 16.7149 22.7706C17.4311 23.2392 18.004 23.6266 18.5756 24.0126C19.1997 24.4348 19.8224 24.8556 20.6292 25.3808C20.8338 25.5143 21.0297 25.6521 21.2212 25.7871C21.9478 26.3023 22.6012 26.7639 23.406 26.6882C23.8725 26.6429 24.3551 26.2023 24.5957 24.8904C25.1641 21.788 26.2816 15.07 26.5361 12.3012C26.5514 12.0714 26.5409 11.8405 26.5046 11.613C26.4828 11.4292 26.3927 11.2604 26.2522 11.1399C26.0431 10.97 25.7192 10.9346 25.5734 10.938C24.9157 10.9519 23.9077 11.3068 19.054 13.3446Z" fill="#C0D100"/>
</svg>
