<svg width="39" height="32" viewBox="0 0 39 32" fill="none" xmlns="http://www.w3.org/2000/svg">
<path d="M38.4022 3.74426C37.0069 4.37041 35.5071 4.79538 33.9296 4.99053C35.5547 4.00721 36.7677 2.46415 37.3423 0.649284C35.8155 1.56641 34.1433 2.214 32.3984 2.5639C31.2199 1.30978 29.6618 0.481174 27.966 0.206729C26.2702 -0.0677151 24.5315 0.227357 23.0199 1.04613C21.5084 1.86491 20.3085 3.16158 19.6065 4.73483C18.9046 6.30808 18.7399 8.06989 19.138 9.74673C16.0375 9.60109 13.0022 8.80286 10.229 7.40384C7.4558 6.00483 5.00671 4.03629 3.04068 1.62599C2.37521 2.78707 1.99487 4.13193 1.99974 5.5628C2.00338 6.85092 2.3238 8.11823 2.93257 9.25229C3.54134 10.3863 4.41963 11.3521 5.48953 12.0638C4.25143 12.0285 3.03963 11.697 1.95499 11.0967L1.95533 11.1975C1.96136 13.0041 2.59007 14.7531 3.73477 16.1475C4.87948 17.5419 6.46968 18.496 8.23554 18.8479C7.08818 19.1637 5.88431 19.2137 4.71484 18.9942C5.21801 20.547 6.19246 21.9031 7.50178 22.8725C8.81109 23.842 10.3897 24.3763 12.0167 24.4007C9.26242 26.5856 5.85582 27.7773 2.34487 27.7841C1.72294 27.7864 1.10142 27.7521 0.483499 27.6813C4.05513 29.9686 8.2078 31.1748 12.4447 31.1556C26.787 31.1068 34.5871 19.1595 34.5519 8.82092C34.5507 8.48503 34.5412 8.14581 34.525 7.80998C36.0463 6.698 37.3581 5.32297 38.3989 3.74931L38.4022 3.74426V3.74426Z" fill="#C0D100"/>
</svg>
